# Blender v2.93.5 OBJ File: ''
# www.blender.org
o base_fixed_part.001
v -0.048972 0.013122 0.000000
v -0.048972 -0.013122 0.000000
v -0.050700 -0.000000 0.000000
v -0.043907 0.025350 0.000000
v -0.043907 -0.025350 0.000000
v -0.035850 0.035850 0.000000
v -0.035850 -0.035850 0.000000
v -0.025350 0.043907 0.000000
v -0.025350 -0.043907 0.000000
v -0.013122 0.048972 0.000000
v -0.013122 -0.048972 0.000000
v -0.000000 0.050700 0.000000
v 0.000000 -0.050700 0.000000
v 0.013122 0.048972 0.000000
v 0.013122 -0.048972 0.000000
v 0.025350 0.043907 0.000000
v 0.025350 -0.043907 0.000000
v 0.035850 0.035850 0.000000
v 0.035850 -0.035850 0.000000
v 0.043907 0.025350 0.000000
v 0.043907 -0.025350 0.000000
v 0.048972 0.013122 0.000000
v 0.048972 -0.013122 0.000000
v 0.050700 0.000000 0.000000
v 0.010436 -0.038948 0.050000
v 0.000000 -0.040322 0.050000
v -0.020161 -0.034919 0.050000
v -0.028512 -0.028512 0.050000
v -0.010436 -0.038948 0.050000
v -0.034919 -0.020161 0.050000
v -0.038948 -0.010436 0.050000
v -0.038948 0.010436 0.050000
v -0.040322 -0.000000 0.050000
v -0.034919 0.020161 0.050000
v -0.028512 0.028512 0.050000
v -0.020161 0.034919 0.050000
v -0.010436 0.038948 0.050000
v -0.000000 0.040322 0.050000
v 0.010436 0.038948 0.050000
v 0.028512 0.028512 0.050000
v 0.034919 0.020161 0.050000
v 0.038948 -0.010436 0.050000
v 0.040322 0.000000 0.050000
v 0.020161 -0.034919 0.050000
v 0.028512 -0.028512 0.050000
v 0.034919 -0.020161 0.050000
v 0.038948 0.010436 0.050000
v 0.020161 0.034919 0.050000
v -0.042000 -0.002055 0.029671
v -0.062600 0.000000 0.029942
v -0.062600 -0.002055 0.029671
v -0.042000 0.000000 0.029942
v -0.042000 -0.003971 0.028878
v -0.062600 -0.003971 0.028878
v -0.042000 -0.005616 0.027616
v -0.062600 -0.005616 0.027616
v -0.062600 -0.006878 0.025971
v -0.042000 -0.006878 0.025971
v -0.062600 -0.007671 0.024055
v -0.042000 -0.007671 0.024055
v -0.062600 -0.007942 0.022000
v -0.042000 -0.007942 0.022000
v -0.062600 -0.007671 0.019945
v -0.042000 -0.007671 0.019945
v -0.062600 -0.006878 0.018029
v -0.042000 -0.006878 0.018029
v -0.062600 -0.005616 0.016384
v -0.042000 -0.005616 0.016384
v -0.042000 -0.003971 0.015122
v -0.062600 -0.003971 0.015122
v -0.042000 -0.002055 0.014329
v -0.062600 -0.002055 0.014329
v -0.042000 -0.000000 0.014058
v -0.062600 -0.000000 0.014058
v -0.042000 0.002055 0.014329
v -0.062600 0.002055 0.014329
v -0.042000 0.003971 0.015122
v -0.062600 0.003971 0.015122
v -0.042000 0.005616 0.016384
v -0.062600 0.005616 0.016384
v -0.062600 0.006878 0.018029
v -0.042000 0.006878 0.018029
v -0.062600 0.007671 0.019945
v -0.042000 0.007671 0.019945
v -0.062600 0.007942 0.022000
v -0.042000 0.007942 0.022000
v -0.062600 0.007671 0.024055
v -0.042000 0.007671 0.024055
v -0.062600 0.006878 0.025971
v -0.042000 0.006878 0.025971
v -0.062600 0.005616 0.027616
v -0.042000 0.005616 0.027616
v -0.062600 0.002055 0.029671
v -0.042000 0.002055 0.029671
v -0.042000 0.003971 0.028878
v -0.062600 0.003971 0.028878
vn 0.0000 0.0000 -1.0000
vn 0.1278 -0.9711 0.2016
vn -0.5963 -0.7771 0.2016
vn -0.3748 -0.9049 0.2016
vn -0.9049 -0.3748 0.2016
vn -0.7771 -0.5963 0.2016
vn -0.1278 -0.9711 0.2016
vn -0.9711 0.1278 0.2016
vn -0.9049 0.3748 0.2016
vn -0.5963 0.7771 0.2016
vn -0.3748 0.9049 0.2016
vn -0.1278 0.9711 0.2016
vn 0.1278 0.9711 0.2016
vn -0.9711 -0.1278 0.2016
vn 0.7771 0.5963 0.2016
vn 0.9711 -0.1278 0.2016
vn 0.3748 -0.9049 0.2016
vn 0.5963 -0.7771 0.2016
vn 0.9049 -0.3748 0.2016
vn 0.7771 -0.5963 0.2016
vn 0.9711 0.1278 0.2016
vn 0.5963 0.7771 0.2016
vn 0.0000 0.0000 1.0000
vn 0.3748 0.9049 0.2016
vn 0.9049 0.3748 0.2016
vn -0.7771 0.5963 0.2016
vn 0.0000 -0.1305 0.9914
vn 0.0000 -0.3827 0.9239
vn 0.0000 -0.6088 0.7934
vn 0.0000 -0.7934 0.6088
vn 0.0000 -0.9239 0.3827
vn 0.0000 -0.9914 0.1305
vn 0.0000 -0.9914 -0.1305
vn 0.0000 -0.9239 -0.3827
vn 0.0000 -0.7934 -0.6088
vn 0.0000 -0.6088 -0.7934
vn 0.0000 -0.3827 -0.9239
vn 0.0000 -0.1305 -0.9914
vn 0.0000 0.1305 -0.9914
vn 0.0000 0.3827 -0.9239
vn 0.0000 0.6088 -0.7934
vn 0.0000 0.7934 -0.6088
vn 0.0000 0.9239 -0.3827
vn 0.0000 0.9914 -0.1305
vn 0.0000 0.9914 0.1305
vn 0.0000 0.9239 0.3827
vn 0.0000 0.7934 0.6088
vn 0.0000 0.1305 0.9914
vn 0.0000 0.6088 0.7934
vn 0.0000 0.3827 0.9239
vn -1.0000 0.0000 0.0000
s off
f 1//1 2//1 3//1
f 2//1 1//1 4//1
f 2//1 4//1 5//1
f 5//1 4//1 6//1
f 5//1 6//1 7//1
f 7//1 6//1 8//1
f 7//1 8//1 9//1
f 9//1 8//1 10//1
f 9//1 10//1 11//1
f 11//1 10//1 12//1
f 11//1 12//1 13//1
f 13//1 12//1 14//1
f 13//1 14//1 15//1
f 15//1 14//1 16//1
f 15//1 16//1 17//1
f 17//1 16//1 18//1
f 17//1 18//1 19//1
f 19//1 18//1 20//1
f 19//1 20//1 21//1
f 21//1 20//1 22//1
f 21//1 22//1 23//1
f 23//1 22//1 24//1
f 25//2 13//2 15//2
f 13//2 25//2 26//2
f 27//3 7//3 9//3
f 7//3 27//3 28//3
f 29//4 9//4 11//4
f 9//4 29//4 27//4
f 30//5 2//5 5//5
f 2//5 30//5 31//5
f 28//6 5//6 7//6
f 5//6 28//6 30//6
f 26//7 11//7 13//7
f 11//7 26//7 29//7
f 32//8 3//8 33//8
f 3//8 32//8 1//8
f 34//9 1//9 32//9
f 1//9 34//9 4//9
f 35//10 8//10 6//10
f 8//10 35//10 36//10
f 36//11 10//11 8//11
f 10//11 36//11 37//11
f 37//12 12//12 10//12
f 12//12 37//12 38//12
f 38//13 14//13 12//13
f 14//13 38//13 39//13
f 31//14 3//14 2//14
f 3//14 31//14 33//14
f 20//15 40//15 41//15
f 40//15 20//15 18//15
f 24//16 42//16 23//16
f 42//16 24//16 43//16
f 44//17 15//17 17//17
f 15//17 44//17 25//17
f 45//18 17//18 19//18
f 17//18 45//18 44//18
f 23//19 46//19 21//19
f 46//19 23//19 42//19
f 21//20 45//20 19//20
f 45//20 21//20 46//20
f 22//21 43//21 24//21
f 43//21 22//21 47//21
f 48//22 18//22 16//22
f 18//22 48//22 40//22
f 31//23 32//23 33//23
f 32//23 31//23 34//23
f 34//23 31//23 30//23
f 34//23 30//23 35//23
f 35//23 30//23 28//23
f 35//23 28//23 36//23
f 36//23 28//23 27//23
f 36//23 27//23 37//23
f 37//23 27//23 29//23
f 37//23 29//23 38//23
f 38//23 29//23 26//23
f 38//23 26//23 39//23
f 39//23 26//23 25//23
f 39//23 25//23 48//23
f 48//23 25//23 44//23
f 48//23 44//23 40//23
f 40//23 44//23 45//23
f 40//23 45//23 46//23
f 40//23 46//23 41//23
f 41//23 46//23 47//23
f 47//23 46//23 42//23
f 47//23 42//23 43//23
f 39//24 16//24 14//24
f 16//24 39//24 48//24
f 22//25 41//25 47//25
f 41//25 22//25 20//25
f 35//26 4//26 34//26
f 4//26 35//26 6//26
f 49//27 50//27 51//27
f 50//27 49//27 52//27
f 53//28 51//28 54//28
f 51//28 53//28 49//28
f 55//29 54//29 56//29
f 54//29 55//29 53//29
f 55//30 57//30 58//30
f 57//30 55//30 56//30
f 58//31 59//31 60//31
f 59//31 58//31 57//31
f 60//32 61//32 62//32
f 61//32 60//32 59//32
f 62//33 63//33 64//33
f 63//33 62//33 61//33
f 64//34 65//34 66//34
f 65//34 64//34 63//34
f 66//35 67//35 68//35
f 67//35 66//35 65//35
f 69//36 67//36 70//36
f 67//36 69//36 68//36
f 71//37 70//37 72//37
f 70//37 71//37 69//37
f 73//38 72//38 74//38
f 72//38 73//38 71//38
f 75//39 74//39 76//39
f 74//39 75//39 73//39
f 77//40 76//40 78//40
f 76//40 77//40 75//40
f 79//41 78//41 80//41
f 78//41 79//41 77//41
f 81//42 79//42 80//42
f 79//42 81//42 82//42
f 83//43 82//43 81//43
f 82//43 83//43 84//43
f 85//44 84//44 83//44
f 84//44 85//44 86//44
f 87//45 86//45 85//45
f 86//45 87//45 88//45
f 89//46 88//46 87//46
f 88//46 89//46 90//46
f 91//47 90//47 89//47
f 90//47 91//47 92//47
f 52//48 93//48 50//48
f 93//48 52//48 94//48
f 95//49 91//49 96//49
f 91//49 95//49 92//49
f 94//50 96//50 93//50
f 96//50 94//50 95//50
f 59//51 63//51 61//51
f 63//51 59//51 65//51
f 65//51 59//51 57//51
f 65//51 57//51 67//51
f 67//51 57//51 56//51
f 67//51 56//51 70//51
f 70//51 56//51 54//51
f 70//51 54//51 72//51
f 72//51 54//51 51//51
f 72//51 51//51 74//51
f 74//51 51//51 50//51
f 74//51 50//51 76//51
f 76//51 50//51 93//51
f 76//51 93//51 78//51
f 78//51 93//51 96//51
f 78//51 96//51 80//51
f 80//51 96//51 91//51
f 80//51 91//51 81//51
f 81//51 91//51 89//51
f 81//51 89//51 83//51
f 83//51 89//51 87//51
f 83//51 87//51 85//51
