# Blender v2.93.5 OBJ File: ''
# www.blender.org
o mounting_plate.001
v 0.043884 -0.025203 0.000000
v 0.035807 -0.035604 0.005000
v 0.035807 -0.035604 0.000000
v 0.043884 -0.025203 0.005000
v 0.043884 0.025203 0.000000
v 0.048966 0.013054 0.005000
v 0.048966 0.013054 0.000000
v 0.043884 0.025203 0.005000
v -0.000000 0.050000 0.005000
v 0.013077 0.048448 0.000000
v -0.000000 0.050000 0.000000
v 0.013077 0.048448 0.005000
v 0.025295 0.043535 0.000000
v 0.025295 0.043535 0.005000
v 0.035807 0.035604 0.000000
v 0.035807 0.035604 0.005000
v 0.050700 0.000000 0.005000
v 0.050700 0.000000 0.000000
v 0.048966 -0.013054 0.005000
v 0.048966 -0.013054 0.000000
v 0.025295 -0.043535 0.000000
v 0.025295 -0.043535 0.005000
v 0.013077 -0.048448 0.000000
v 0.013077 -0.048448 0.005000
v -0.000000 -0.050000 0.000000
v -0.000000 -0.050000 0.005000
v -0.080000 0.050000 0.005000
v -0.080000 -0.050000 0.005000
v -0.080000 -0.050000 0.000000
v -0.080000 0.050000 0.000000
vn 0.7898 -0.6133 0.0000
vn 0.9225 0.3859 0.0000
vn 0.1179 0.9930 0.0000
vn 0.3730 0.9278 0.0000
vn 0.6023 0.7983 0.0000
vn 0.7898 0.6133 0.0000
vn 0.9913 0.1317 0.0000
vn 0.9913 -0.1317 0.0000
vn 0.6023 -0.7983 0.0000
vn 0.9225 -0.3859 0.0000
vn 0.3730 -0.9278 0.0000
vn 0.1179 -0.9930 0.0000
vn 0.0000 0.0000 1.0000
vn 0.0000 0.0000 -1.0000
vn 0.0000 1.0000 0.0000
vn -1.0000 0.0000 0.0000
vn 0.0000 -1.0000 0.0000
s off
f 1//1 2//1 3//1
f 2//1 1//1 4//1
f 5//2 6//2 7//2
f 6//2 5//2 8//2
f 9//3 10//3 11//3
f 10//3 9//3 12//3
f 12//4 13//4 10//4
f 13//4 12//4 14//4
f 14//5 15//5 13//5
f 15//5 14//5 16//5
f 15//6 8//6 5//6
f 8//6 15//6 16//6
f 7//7 17//7 18//7
f 17//7 7//7 6//7
f 18//8 19//8 20//8
f 19//8 18//8 17//8
f 2//9 21//9 3//9
f 21//9 2//9 22//9
f 20//10 4//10 1//10
f 4//10 20//10 19//10
f 22//11 23//11 21//11
f 23//11 22//11 24//11
f 24//12 25//12 23//12
f 25//12 24//12 26//12
f 26//13 27//13 28//13
f 27//13 26//13 9//13
f 9//13 26//13 12//13
f 12//13 26//13 24//13
f 12//13 24//13 14//13
f 14//13 24//13 22//13
f 14//13 22//13 16//13
f 16//13 22//13 2//13
f 16//13 2//13 8//13
f 8//13 2//13 4//13
f 8//13 4//13 6//13
f 6//13 4//13 19//13
f 6//13 19//13 17//13
f 11//14 29//14 30//14
f 29//14 11//14 25//14
f 25//14 11//14 10//14
f 25//14 10//14 23//14
f 23//14 10//14 13//14
f 23//14 13//14 21//14
f 21//14 13//14 15//14
f 21//14 15//14 3//14
f 3//14 15//14 5//14
f 3//14 5//14 1//14
f 1//14 5//14 7//14
f 1//14 7//14 20//14
f 20//14 7//14 18//14
f 27//15 11//15 30//15
f 11//15 27//15 9//15
f 27//16 29//16 28//16
f 29//16 27//16 30//16
f 25//17 28//17 29//17
f 28//17 25//17 26//17
