# Blender v2.93.5 OBJ File: ''
# www.blender.org
o rotating_link_type_1_revolute_part.001
v -0.012256 -0.007681 0.211283
v -0.025115 -0.007681 0.199500
v -0.018763 -0.017000 0.201092
v -0.053536 -0.000000 0.150251
v -0.049958 -0.007777 0.163508
v -0.052173 -0.000000 0.160604
v -0.028024 -0.025000 0.154134
v -0.041036 -0.021651 0.150251
v -0.028536 -0.025000 0.150251
v -0.041315 -0.020321 0.160362
v -0.050186 -0.012500 0.150251
v -0.026526 -0.025000 0.157751
v -0.039451 -0.012500 0.176167
v -0.032981 -0.021651 0.169697
v -0.024142 -0.025000 0.160858
v -0.023807 -0.017100 0.175862
v -0.018031 -0.020000 0.166969
v -0.027482 -0.019671 0.162631
v 0.020506 -0.007681 0.205506
v 0.005036 -0.000000 0.213559
v 0.005036 -0.007681 0.213559
v 0.020506 -0.000000 0.205506
v -0.000607 -0.000000 0.149038
v -0.002975 -0.012500 0.151406
v -0.002196 -0.000000 0.146967
v -0.027343 -0.025000 0.151026
v -0.028536 -0.025000 0.141967
v -0.016036 -0.021651 0.141967
v 0.014500 -0.000000 0.159885
v 0.026283 -0.007681 0.172744
v 0.014500 -0.007681 0.159885
v 0.026283 -0.000000 0.172744
v 0.028559 -0.007681 0.190036
v 0.028559 -0.000000 0.190036
v -0.003195 -0.000000 0.144555
v -0.006885 -0.012500 0.141967
v -0.003536 -0.000000 0.141967
v -0.013021 -0.021651 0.056663
v -0.026425 -0.025000 0.055943
v -0.023846 -0.025000 0.050413
v -0.028004 -0.025000 0.061836
v -0.016036 -0.021651 0.067913
v -0.028536 -0.025000 0.067913
v -0.005096 -0.012500 0.061239
v -0.006885 -0.012500 0.067913
v 0.000427 -0.017000 0.159504
v -0.009138 -0.017100 0.161193
v -0.009027 -0.022697 0.161151
v -0.025496 -0.017000 0.185427
v -0.023849 -0.022697 0.175973
v -0.002196 -0.000000 0.062913
v 0.005525 -0.009632 0.045682
v 0.007559 -0.000000 0.046018
v 0.000049 -0.017717 0.044301
v -0.007815 -0.023104 0.041748
v -0.016908 -0.025000 0.038397
v -0.018031 -0.025000 0.166969
v 0.005952 -0.000000 0.155596
v 0.005405 -0.006167 0.156143
v 0.003800 -0.011953 0.157748
v -0.009445 -0.021651 0.157877
v -0.041820 -0.000000 0.178536
v -0.028857 -0.006167 0.190405
v -0.029404 -0.000000 0.190952
v -0.027252 -0.011953 0.188800
v 0.016092 -0.017000 0.166237
v 0.022193 -0.017000 0.195884
v 0.010884 -0.017000 0.207193
v -0.034757 -0.005760 -0.005343
v -0.032831 -0.008742 -0.007627
v -0.033042 -0.011209 -0.004353
v -0.034603 -0.000000 -0.007259
v -0.030285 -0.016056 -0.002761
v 0.034000 -0.000000 -0.014000
v 0.033370 -0.005579 -0.005172
v 0.026319 -0.021525 -0.014000
v 0.032263 -0.003961 0.002201
v 0.010355 -0.030711 0.006409
v 0.006747 -0.033324 -0.014000
v -0.011928 -0.031432 0.011908
v -0.007403 -0.033184 -0.014000
v -0.004689 -0.032312 0.011112
v -0.028536 -0.025000 0.032535
v -0.041036 -0.021651 0.029186
v -0.050186 -0.012500 0.026734
v -0.053536 -0.000000 0.025837
v -0.035350 -0.014350 0.003396
v -0.028452 -0.020427 0.003566
v -0.028938 -0.022468 0.011306
v -0.026537 -0.021255 -0.014000
v -0.013520 -0.031224 -0.003055
v -0.015328 -0.030601 0.005704
v -0.048177 -0.000000 0.170251
v -0.025115 -0.000000 0.199500
v -0.012256 -0.000000 0.211283
v 0.024211 -0.017000 0.180017
v -0.004983 -0.017000 0.209211
v -0.023846 -0.025000 0.159467
v 0.034000 -0.000000 -0.007000
v 0.032326 -0.000000 0.002871
v 0.022989 0.000000 0.024499
v 0.001536 -0.031542 0.013099
v -0.033772 -0.003367 -0.011991
v -0.034000 -0.000000 -0.014000
v -0.009445 0.021651 0.157877
v -0.006885 0.012500 0.141967
v -0.016036 0.021651 0.141967
v 0.001536 0.031542 0.013099
v 0.010355 0.030711 0.006409
v 0.006747 0.033324 -0.014000
v -0.012256 0.007681 0.211283
v -0.018763 0.017000 0.201092
v -0.025115 0.007681 0.199500
v -0.028536 0.025000 0.032535
v -0.028938 0.022468 0.011306
v -0.041036 0.021651 0.029186
v 0.014500 0.007681 0.159885
v 0.026283 0.007681 0.172744
v -0.035350 0.014350 0.003396
v -0.033042 0.011209 -0.004353
v -0.050186 0.012500 0.026734
v -0.013021 0.021651 0.056663
v -0.023846 0.025000 0.050413
v -0.026425 0.025000 0.055943
v -0.005096 0.012500 0.061239
v 0.000049 0.017717 0.044301
v -0.028004 0.025000 0.061836
v -0.016036 0.021651 0.067913
v -0.018031 0.025000 0.166969
v -0.023849 0.022697 0.175973
v -0.023807 0.017100 0.175862
v -0.028536 0.025000 0.067913
v 0.005525 0.009632 0.045682
v -0.009138 0.017100 0.161193
v -0.018031 0.020000 0.166969
v -0.025496 0.017000 0.185427
v -0.032981 0.021651 0.169697
v -0.039451 0.012500 0.176167
v -0.023846 0.025000 0.159467
v -0.030285 0.016056 -0.002761
v 0.022193 0.017000 0.195884
v 0.000427 0.017000 0.159504
v 0.016092 0.017000 0.166237
v 0.003800 0.011953 0.157748
v -0.002975 0.012500 0.151406
v 0.010884 0.017000 0.207193
v -0.004983 0.017000 0.209211
v -0.027252 0.011953 0.188800
v -0.028857 0.006167 0.190405
v 0.005036 0.007681 0.213559
v 0.026319 0.021525 -0.014000
v 0.032263 0.003961 0.002201
v 0.033370 0.005579 -0.005172
v -0.007815 0.023104 0.041748
v -0.016908 0.025000 0.038397
v -0.011928 0.031432 0.011908
v -0.004689 0.032312 0.011112
v -0.007403 0.033184 -0.014000
v 0.005405 0.006167 0.156143
v 0.020506 0.007681 0.205506
v -0.028536 0.025000 0.141967
v -0.050186 0.012500 0.150251
v -0.041036 0.021651 0.150251
v 0.028559 0.007681 0.190036
v 0.024211 0.017000 0.180017
v -0.006885 0.012500 0.067913
v -0.024142 0.025000 0.160858
v -0.026526 0.025000 0.157751
v -0.041315 0.020321 0.160362
v -0.009027 0.022697 0.161151
v -0.028024 0.025000 0.154134
v -0.027482 0.019671 0.162631
v -0.028536 0.025000 0.150251
v -0.027343 0.025000 0.151026
v -0.049958 0.007777 0.163508
v -0.013520 0.031224 -0.003055
v -0.015328 0.030601 0.005704
v -0.028452 0.020427 0.003566
v -0.026537 0.021255 -0.014000
v -0.032831 0.008742 -0.007627
v -0.033772 0.003367 -0.011991
v -0.034757 0.005760 -0.005343
v -0.003536 -0.000000 0.067913
vn -0.6407 -0.3173 0.6992
vn -0.9654 -0.2275 0.1271
vn -0.2587 -0.9654 0.0341
vn -0.7052 -0.7052 0.0732
vn -0.9603 -0.2573 0.1082
vn -0.2803 -0.9527 0.1176
vn -0.2809 -0.9527 0.1163
vn -0.5777 -0.7025 0.4157
vn -0.2070 -0.9654 0.1588
vn -0.2811 -0.9527 0.1152
vn 0.1371 0.9646 -0.2255
vn 0.4617 0.0000 0.8870
vn 0.7668 -0.2567 -0.5883
vn 0.2587 -0.9654 -0.0341
vn 0.7373 0.0000 -0.6756
vn 0.9914 0.0000 -0.1305
vn 0.9071 -0.1900 -0.3757
vn 0.9582 -0.2568 -0.1262
vn 0.2354 -0.9657 0.1098
vn 0.2387 -0.9690 0.0640
vn 0.2588 -0.9657 0.0226
vn 0.6947 -0.6947 0.1862
vn 0.1740 -0.0040 0.9847
vn 0.9847 -0.0040 0.1740
vn 0.8491 -0.1965 0.4903
vn 0.8193 -0.2587 0.5117
vn 0.7284 -0.5605 0.3939
vn 0.5870 -0.7062 0.3959
vn 0.4897 -0.8346 0.2522
vn 0.2033 -0.9651 0.1650
vn 0.1687 -0.9809 0.0974
vn 0.5436 0.0044 0.8393
vn 0.8387 0.0000 0.5446
vn 0.8404 0.0044 0.5419
vn 0.7016 -0.1243 -0.7016
vn 0.6156 -0.2577 -0.7447
vn 0.6517 -0.3652 -0.6648
vn 0.4252 -0.7034 -0.5696
vn 0.4464 -0.8343 -0.3237
vn -0.1518 -0.9767 0.1518
vn -0.2145 -0.9650 0.1512
vn -0.3864 -0.8182 0.4257
vn -0.7016 -0.1243 0.7016
vn -0.7164 -0.2585 0.6480
vn -0.6617 -0.3652 0.6548
vn -0.5352 -0.7062 0.4635
vn -0.5711 -0.5842 0.5767
vn 0.5427 0.0000 0.8399
vn 0.6992 -0.3173 -0.6407
vn 0.6058 -0.5158 0.6058
vn -0.8890 -0.3364 -0.3106
vn -0.8432 -0.1492 -0.5164
vn -0.6995 -0.5484 -0.4582
vn 0.9321 -0.3326 -0.1436
vn 0.7418 -0.5463 0.3891
vn 0.4283 -0.8126 0.3952
vn 0.5162 -0.8563 0.0184
vn -0.1155 -0.9922 0.0469
vn -0.0099 -0.9993 0.0358
vn 0.7071 -0.7071 0.0000
vn 0.2588 -0.9659 0.0000
vn -0.2588 -0.9659 0.0000
vn -0.7071 -0.7071 0.0000
vn -0.9659 -0.2588 0.0000
vn -0.6190 -0.7093 -0.3372
vn -0.4352 -0.8634 -0.2550
vn -0.6176 -0.7105 -0.3373
vn -0.6232 -0.7161 -0.3143
vn -0.8476 -0.2603 -0.4624
vn -0.8169 -0.3417 -0.4647
vn -0.9101 -0.3967 -0.1199
vn -0.8775 -0.4739 -0.0733
vn -0.5935 -0.8044 -0.0268
vn -0.6043 -0.7938 -0.0683
vn -0.5693 -0.7854 -0.2428
vn 0.8870 0.0000 0.4617
vn -0.7668 -0.2568 0.5884
vn -0.6756 0.0000 0.7373
vn -0.1305 0.0000 0.9914
vn -0.7867 -0.2916 0.5441
vn -0.7166 -0.5879 0.3754
vn -0.9173 -0.1194 0.3799
vn 0.7428 -0.5067 -0.4376
vn 0.9436 -0.3068 -0.1242
vn 0.8512 -0.5136 0.1082
vn 0.8457 -0.3015 0.4403
vn 0.4403 -0.3015 0.8457
vn 0.1082 -0.5136 0.8512
vn -0.4376 -0.5067 0.7428
vn -0.1242 -0.3068 0.9436
vn -0.8876 -0.1181 0.4453
vn -0.9248 0.0000 0.3806
vn -0.8901 -0.3332 0.3108
vn -0.7935 -0.5040 0.3411
vn -0.8000 -0.4849 0.3534
vn 0.3618 -0.1140 -0.9253
vn 0.4485 0.0000 -0.8938
vn 0.3534 -0.4849 -0.8000
vn 0.3108 -0.3332 -0.8901
vn 0.5790 -0.5847 -0.5682
vn 0.3411 -0.5040 -0.7935
vn 0.5629 -0.6052 0.5629
vn 0.0000 -1.0000 0.0000
vn 0.0095 -0.9999 -0.0057
vn 0.0015 -1.0000 0.0015
vn -0.0022 -0.9999 0.0101
vn -0.7755 -0.5904 0.2237
vn 0.6786 -0.6786 -0.2811
vn 0.0433 -0.9500 -0.3091
vn 0.2162 -0.9722 -0.0896
vn 0.2068 -0.9652 -0.1603
vn 0.9937 -0.1123 0.0000
vn 0.9843 -0.0566 0.1669
vn 0.9866 -0.0424 0.1574
vn 0.7540 -0.5647 0.3356
vn 0.8343 -0.4988 0.2347
vn 0.7350 -0.5624 0.3787
vn 0.9150 -0.0814 0.3950
vn 0.7981 -0.1885 0.5723
vn 0.7672 -0.4957 0.4071
vn 0.1043 -0.9599 0.2602
vn 0.4642 -0.7146 0.5233
vn 0.0321 -0.9617 0.2721
vn -0.0928 -0.9693 0.2275
vn -0.1070 -0.9713 0.2124
vn 0.0960 -0.9919 0.0837
vn -0.5237 -0.8400 -0.1422
vn -0.2785 -0.9603 0.0163
vn -0.2621 -0.9649 0.0145
vn -0.4655 -0.8742 0.1381
vn -0.4613 -0.8820 -0.0964
vn -0.2294 -0.9670 -0.1110
vn 0.1655 -0.9815 0.0964
vn -0.9116 -0.3433 -0.2262
vn -0.8610 -0.3023 -0.4090
vn -0.9798 -0.1973 -0.0316
vn -0.7137 -0.5489 -0.4351
vn -0.7407 -0.5162 -0.4299
vn -0.9889 -0.1197 -0.0885
vn -0.8594 -0.1405 -0.4916
vn 0.6786 0.6786 -0.2811
vn 0.1655 0.9815 0.0964
vn -0.6407 0.3173 0.6992
vn -0.2294 0.9670 -0.1110
vn 0.9582 0.2568 -0.1262
vn -0.7407 0.5162 -0.4299
vn 0.2354 0.9657 0.1098
vn 0.5870 0.7062 0.3959
vn 0.2387 0.9690 0.0640
vn 0.8404 -0.0044 0.5419
vn 0.2588 0.9657 0.0226
vn 0.8193 0.2587 0.5117
vn 0.5629 0.6052 0.5629
vn -0.5352 0.7062 0.4635
vn 0.7981 0.1885 0.5723
vn 0.2068 0.9652 -0.1603
vn -0.7137 0.5489 -0.4351
vn 0.0095 0.9999 -0.0057
vn 0.0015 1.0000 0.0015
vn 0.3411 0.5040 -0.7935
vn -0.0022 0.9999 0.0101
vn 0.5790 0.5847 -0.5682
vn 0.0000 1.0000 0.0000
vn -0.7935 0.5040 0.3411
vn -0.8000 0.4849 0.3534
vn -0.8901 0.3332 0.3108
vn -0.1242 0.3068 0.9436
vn 0.8343 0.4988 0.2347
vn 0.1043 0.9599 0.2602
vn -0.4376 0.5067 0.7428
vn -0.1155 0.9922 0.0469
vn 0.6517 0.3652 -0.6648
vn 0.4283 0.8126 0.3952
vn 0.4642 0.7146 0.5233
vn 0.6058 0.5158 0.6058
vn 0.2588 0.9659 0.0000
vn -0.7071 0.7071 0.0000
vn 0.8512 0.5136 0.1082
vn 0.1082 0.5136 0.8512
vn 0.8457 0.3015 0.4403
vn 0.7540 0.5647 0.3356
vn 0.7284 0.5605 0.3939
vn 0.4897 0.8346 0.2522
vn 0.7016 0.1243 -0.7016
vn -0.7016 0.1243 0.7016
vn 0.6947 0.6947 0.1862
vn -0.2145 0.9650 0.1512
vn -0.2070 0.9654 0.1588
vn -0.2811 0.9527 0.1152
vn 0.9071 0.1900 -0.3757
vn 0.1740 0.0040 0.9847
vn -0.2809 0.9527 0.1163
vn -0.2803 0.9527 0.1176
vn -0.5777 0.7025 0.4157
vn 0.1371 -0.9646 -0.2255
vn 0.3618 0.1140 -0.9253
vn 0.4403 0.3015 0.8457
vn -0.8876 0.1181 0.4453
vn -0.2588 0.9659 0.0000
vn 0.7668 0.2567 -0.5883
vn 0.9843 0.0566 0.1669
vn 0.9150 0.0814 0.3950
vn -0.9654 0.2275 0.1271
vn -0.7052 0.7052 0.0732
vn 0.9436 0.3068 -0.1242
vn -0.2587 0.9654 0.0341
vn -0.7867 0.2916 0.5441
vn -0.2785 0.9603 0.0163
vn -0.2621 0.9649 0.0145
vn -0.1070 0.9713 0.2124
vn -0.5935 0.8044 -0.0268
vn -0.0928 0.9693 0.2275
vn -0.7668 0.2568 0.5884
vn -0.6043 0.7938 -0.0683
vn -0.5693 0.7854 -0.2428
vn -0.9101 0.3967 -0.1199
vn -0.9116 0.3433 -0.2262
vn -0.8775 0.4739 -0.0733
vn -0.5237 0.8400 -0.1422
vn -0.8169 0.3417 -0.4647
vn -0.7166 0.5879 0.3754
vn -0.9173 0.1194 0.3799
vn -0.4352 0.8634 -0.2550
vn -0.6190 0.7093 -0.3372
vn 0.7672 0.4957 0.4071
vn -0.6232 0.7161 -0.3143
vn -0.8476 0.2603 -0.4624
vn -0.6176 0.7105 -0.3373
vn -0.9659 0.2588 0.0000
vn -0.0099 0.9993 0.0358
vn 0.7071 0.7071 0.0000
vn 0.9321 0.3326 -0.1436
vn -0.6995 0.5484 -0.4582
vn -0.8432 0.1492 -0.5164
vn 0.7418 0.5463 0.3891
vn -0.8890 0.3364 -0.3106
vn -0.4655 0.8742 0.1381
vn 0.6992 0.3173 -0.6407
vn -0.5711 0.5842 0.5767
vn 0.0960 0.9919 0.0837
vn 0.4464 0.8343 -0.3237
vn 0.5162 0.8563 0.0184
vn 0.4252 0.7034 -0.5696
vn 0.6156 0.2577 -0.7447
vn -0.1518 0.9767 0.1518
vn 0.2033 0.9651 0.1650
vn -0.3864 0.8182 0.4257
vn -0.7164 0.2585 0.6480
vn -0.6617 0.3652 0.6548
vn 0.8491 0.1965 0.4903
vn 0.9847 0.0040 0.1740
vn 0.1687 0.9809 0.0974
vn 0.5436 -0.0044 0.8393
vn 0.2587 0.9654 -0.0341
vn 0.7428 0.5067 -0.4376
vn -0.9798 0.1973 -0.0316
vn -0.8610 0.3023 -0.4090
vn 0.3534 0.4849 -0.8000
vn 0.3108 0.3332 -0.8901
vn -0.9889 0.1197 -0.0885
vn 0.2162 0.9722 -0.0896
vn 0.9866 0.0424 0.1574
vn 0.9937 0.1123 0.0000
vn 0.0433 0.9500 -0.3091
vn 0.0321 0.9617 0.2721
vn 0.7350 0.5624 0.3787
vn -0.7755 0.5904 0.2237
vn -0.4613 0.8820 -0.0964
vn -0.8594 0.1405 -0.4916
vn -0.9603 0.2573 0.1082
vn 0.9351 -0.2506 0.2506
vn 0.9659 -0.2588 0.0000
vn 0.9659 0.2588 0.0000
vn 0.9351 0.2506 0.2506
vn 0.0000 0.0000 -1.0000
s off
f 1//1 2//1 3//1
f 4//2 5//2 6//2
f 7//3 8//3 9//3
f 10//4 11//4 8//4
f 4//5 11//5 5//5
f 10//6 8//6 7//6
f 10//7 7//7 12//7
f 13//8 10//8 14//8
f 14//9 12//9 15//9
f 14//10 10//10 12//10
f 16//11 17//11 18//11
f 19//12 20//12 21//12
f 20//12 19//12 22//12
f 23//13 24//13 25//13
f 26//14 27//14 28//14
f 29//15 30//15 31//15
f 30//15 29//15 32//15
f 32//16 33//16 30//16
f 33//16 32//16 34//16
f 35//17 24//17 36//17
f 24//17 35//17 25//17
f 35//18 36//18 37//18
f 38//19 39//19 40//19
f 38//20 41//20 39//20
f 41//20 38//20 42//20
f 43//21 41//21 42//21
f 44//22 42//22 38//22
f 42//22 44//22 45//22
f 46//23 47//23 48//23
f 49//24 50//24 16//24
f 51//25 52//25 53//25
f 51//26 44//26 52//26
f 52//27 44//27 54//27
f 44//28 38//28 54//28
f 38//29 55//29 54//29
f 38//30 40//30 55//30
f 40//31 56//31 55//31
f 48//32 47//32 17//32
f 16//33 57//33 17//33
f 16//34 50//34 57//34
f 58//35 59//35 23//35
f 59//36 24//36 23//36
f 59//37 60//37 24//37
f 46//38 61//38 24//38
f 48//39 61//39 46//39
f 50//40 15//40 57//40
f 50//41 14//41 15//41
f 49//42 14//42 50//42
f 62//43 63//43 64//43
f 62//44 13//44 63//44
f 63//45 13//45 65//45
f 49//46 13//46 14//46
f 65//47 13//47 49//47
f 48//48 17//48 57//48
f 30//49 66//49 31//49
f 67//50 19//50 68//50
f 69//51 70//51 71//51
f 72//52 70//52 69//52
f 70//53 73//53 71//53
f 74//54 75//54 76//54
f 77//55 54//55 78//55
f 54//56 55//56 78//56
f 78//57 79//57 76//57
f 80//58 81//58 82//58
f 82//59 81//59 79//59
f 36//60 42//60 45//60
f 42//60 36//60 28//60
f 28//61 43//61 42//61
f 43//61 28//61 27//61
f 83//62 8//62 84//62
f 8//62 83//62 43//62
f 8//62 43//62 27//62
f 8//62 27//62 9//62
f 84//63 11//63 85//63
f 11//63 84//63 8//63
f 4//64 85//64 11//64
f 85//64 4//64 86//64
f 84//65 85//65 87//65
f 84//66 88//66 89//66
f 84//67 87//67 88//67
f 88//68 87//68 73//68
f 86//69 69//69 85//69
f 69//70 71//70 85//70
f 70//71 90//71 73//71
f 73//72 90//72 88//72
f 88//73 90//73 91//73
f 92//74 88//74 91//74
f 89//75 88//75 92//75
f 34//76 19//76 33//76
f 19//76 34//76 22//76
f 93//77 13//77 62//77
f 1//78 94//78 2//78
f 94//78 1//78 95//78
f 21//79 95//79 1//79
f 95//79 21//79 20//79
f 93//80 5//80 13//80
f 5//81 10//81 13//81
f 6//82 5//82 93//82
f 30//83 96//83 66//83
f 33//84 96//84 30//84
f 33//85 67//85 96//85
f 19//86 67//86 33//86
f 19//87 21//87 68//87
f 68//88 21//88 97//88
f 97//89 1//89 3//89
f 21//90 1//90 97//90
f 64//91 63//91 94//91
f 94//92 63//92 2//92
f 63//93 65//93 2//93
f 65//94 49//94 3//94
f 2//95 65//95 3//95
f 31//96 59//96 58//96
f 31//97 58//97 29//97
f 66//98 60//98 31//98
f 31//99 60//99 59//99
f 46//100 24//100 60//100
f 66//101 46//101 60//101
f 16//102 17//102 47//102
f 67//103 3//103 49//103
f 3//103 67//103 68//103
f 3//103 68//103 97//103
f 66//103 67//103 46//103
f 67//103 66//103 96//103
f 67//104 47//104 46//104
f 67//105 16//105 47//105
f 67//106 49//106 16//106
f 5//107 11//107 10//107
f 61//108 28//108 36//108
f 24//108 61//108 36//108
f 57//109 61//109 48//109
f 61//110 26//110 28//110
f 26//110 61//110 98//110
f 26//103 9//103 27//103
f 9//103 26//103 7//103
f 7//103 26//103 98//103
f 7//103 98//103 12//103
f 12//103 98//103 15//103
f 15//103 98//103 57//103
f 57//111 98//111 61//111
f 99//112 75//112 74//112
f 100//113 75//113 99//113
f 100//114 77//114 75//114
f 77//115 78//115 76//115
f 77//116 76//116 75//116
f 77//117 52//117 54//117
f 101//118 77//118 100//118
f 101//119 53//119 52//119
f 101//120 52//120 77//120
f 55//121 56//121 78//121
f 56//122 102//122 78//122
f 56//123 82//123 102//123
f 83//124 80//124 82//124
f 83//103 41//103 43//103
f 41//103 83//103 39//103
f 39//103 83//103 40//103
f 40//103 83//103 56//103
f 56//125 83//125 82//125
f 102//126 82//126 79//126
f 91//127 90//127 81//127
f 80//128 91//128 81//128
f 80//129 92//129 91//129
f 80//130 89//130 92//130
f 83//131 89//131 80//131
f 83//132 84//132 89//132
f 102//133 79//133 78//133
f 103//134 90//134 70//134
f 104//135 90//135 103//135
f 72//136 103//136 70//136
f 71//137 73//137 87//137
f 71//138 87//138 85//138
f 72//139 104//139 103//139
f 72//140 69//140 86//140
f 105//141 106//141 107//141
f 108//142 109//142 110//142
f 111//143 112//143 113//143
f 114//144 115//144 116//144
f 106//145 35//145 37//145
f 117//15 32//15 29//15
f 32//15 117//15 118//15
f 119//146 120//146 121//146
f 122//147 123//147 124//147
f 125//148 126//148 122//148
f 127//149 122//149 124//149
f 122//149 127//149 128//149
f 129//150 130//150 131//150
f 128//151 127//151 132//151
f 125//152 51//152 133//152
f 131//153 134//153 135//153
f 136//154 137//154 138//154
f 133//155 53//155 101//155
f 129//156 105//156 139//156
f 140//157 120//157 119//157
f 141//158 142//158 134//158
f 141//159 134//159 131//159
f 143//160 144//160 142//160
f 141//161 131//161 136//161
f 142//162 144//162 145//162
f 112//163 141//163 136//163
f 141//163 112//163 146//163
f 146//163 112//163 147//163
f 29//97 58//97 117//97
f 136//164 148//164 112//164
f 112//165 148//165 113//165
f 148//166 149//166 113//166
f 150//167 147//167 111//167
f 151//168 152//168 153//168
f 154//169 109//169 155//169
f 147//170 112//170 111//170
f 156//171 157//171 158//171
f 159//172 145//172 144//172
f 126//173 109//173 154//173
f 155//174 109//174 108//174
f 146//175 160//175 141//175
f 161//176 128//176 132//176
f 128//176 161//176 107//176
f 162//177 116//177 121//177
f 116//177 162//177 163//177
f 113//92 149//92 94//92
f 141//178 164//178 165//178
f 146//179 147//179 150//179
f 141//180 160//180 164//180
f 109//181 152//181 151//181
f 126//182 125//182 133//182
f 122//183 126//183 154//183
f 58//184 23//184 159//184
f 149//185 62//185 64//185
f 128//186 125//186 122//186
f 125//186 128//186 166//186
f 130//187 167//187 137//187
f 137//188 167//188 168//188
f 137//189 168//189 169//189
f 118//16 34//16 32//16
f 34//16 118//16 164//16
f 106//190 25//190 35//190
f 25//190 106//190 145//190
f 142//191 170//191 134//191
f 169//192 168//192 171//192
f 169//193 171//193 163//193
f 138//194 137//194 169//194
f 131//195 172//195 135//195
f 117//196 58//196 159//196
f 105//141 145//141 106//141
f 160//197 146//197 150//197
f 149//198 64//198 94//198
f 173//163 174//163 161//163
f 174//163 173//163 171//163
f 174//163 171//163 139//163
f 139//163 171//163 168//163
f 139//163 168//163 167//163
f 139//163 167//163 129//163
f 163//199 114//199 116//199
f 114//199 163//199 132//199
f 132//199 163//199 161//199
f 161//199 163//199 173//199
f 145//200 23//200 25//200
f 153//201 100//201 99//201
f 152//202 101//202 100//202
f 175//203 4//203 6//203
f 169//204 163//204 162//204
f 165//205 164//205 118//205
f 171//206 173//206 163//206
f 138//207 175//207 93//207
f 156//208 158//208 176//208
f 20//79 111//79 95//79
f 111//79 20//79 150//79
f 156//209 176//209 177//209
f 155//210 157//210 114//210
f 178//211 176//211 179//211
f 95//78 113//78 94//78
f 113//78 95//78 111//78
f 114//212 157//212 156//212
f 138//213 93//213 62//213
f 177//214 176//214 178//214
f 114//163 123//163 155//163
f 123//163 114//163 124//163
f 124//163 114//163 127//163
f 127//163 114//163 132//163
f 115//215 177//215 178//215
f 179//216 180//216 140//216
f 179//217 181//217 180//217
f 179//218 140//218 178//218
f 176//219 158//219 179//219
f 121//220 120//220 182//220
f 169//221 175//221 138//221
f 175//222 6//222 93//222
f 116//223 115//223 178//223
f 116//224 119//224 121//224
f 133//225 101//225 152//225
f 178//226 140//226 119//226
f 164//76 22//76 34//76
f 22//76 164//76 160//76
f 121//227 182//227 86//227
f 116//228 178//228 119//228
f 162//229 86//229 4//229
f 86//229 162//229 121//229
f 157//230 110//230 158//230
f 107//231 166//231 128//231
f 166//231 107//231 106//231
f 151//232 153//232 74//232
f 140//233 180//233 120//233
f 180//234 72//234 182//234
f 109//235 126//235 152//235
f 120//236 180//236 182//236
f 156//237 177//237 115//237
f 143//238 118//238 117//238
f 170//48 129//48 135//48
f 148//239 136//239 138//239
f 108//240 110//240 157//240
f 170//241 142//241 105//241
f 109//242 151//242 110//242
f 142//243 145//243 105//243
f 159//244 23//244 145//244
f 130//245 129//245 167//245
f 122//246 154//246 123//246
f 136//247 130//247 137//247
f 138//248 62//248 149//248
f 138//249 149//249 148//249
f 133//250 51//250 53//250
f 130//251 136//251 131//251
f 123//252 154//252 155//252
f 170//253 135//253 134//253
f 129//33 131//33 135//33
f 174//254 107//254 161//254
f 22//12 150//12 20//12
f 150//12 22//12 160//12
f 165//255 118//255 143//255
f 180//256 181//256 72//256
f 179//257 104//257 181//257
f 143//258 117//258 144//258
f 141//163 143//163 142//163
f 143//163 141//163 165//163
f 117//259 159//259 144//259
f 181//260 104//260 72//260
f 174//261 105//261 107//261
f 105//261 174//261 139//261
f 153//262 152//262 100//262
f 153//263 99//263 74//263
f 129//264 170//264 105//264
f 155//265 108//265 157//265
f 126//266 133//266 152//266
f 169//267 162//267 175//267
f 114//268 156//268 115//268
f 182//269 72//269 86//269
f 162//270 4//270 175//270
f 51//271 45//271 44//271
f 45//271 51//271 183//271
f 183//272 36//272 45//272
f 36//272 183//272 37//272
f 166//273 37//273 183//273
f 37//273 166//273 106//273
f 125//274 183//274 51//274
f 183//274 125//274 166//274
f 179//275 90//275 104//275
f 90//275 179//275 158//275
f 90//275 158//275 81//275
f 81//275 158//275 110//275
f 81//275 110//275 79//275
f 79//275 110//275 151//275
f 79//275 151//275 76//275
f 76//275 151//275 74//275
