# Blender v2.93.5 OBJ File: ''
# www.blender.org
o rotating_link_type_2_fixed_part.001
v -0.000000 0.135000 -0.032300
v -0.016050 0.116999 -0.027799
v -0.016150 0.135000 -0.027973
v -0.000000 0.116999 -0.032100
v 0.032300 0.135000 -0.000000
v 0.027799 0.116999 0.016050
v 0.032100 0.116999 -0.000000
v 0.027973 0.135000 0.016150
v -0.016050 0.116999 0.027799
v 0.000000 0.135000 0.032300
v -0.016150 0.135000 0.027973
v 0.000000 0.116999 0.032100
v -0.027973 0.135000 -0.016150
v -0.027799 0.116999 -0.016050
v 0.016050 0.116999 0.027799
v 0.016150 0.135000 0.027973
v -0.032300 0.135000 -0.000000
v -0.032100 0.116999 -0.000000
v -0.027973 0.135000 0.016150
v -0.027799 0.116999 0.016050
v 0.027973 0.135000 -0.016150
v 0.027799 0.116999 -0.016050
v -0.004400 0.093099 0.029100
v -0.018950 0.093099 0.025201
v -0.008950 0.069930 0.017600
v 0.020801 0.093099 0.014550
v -0.000150 0.069930 0.015242
v 0.006292 0.069930 0.008800
v 0.010150 0.093099 0.025201
v 0.024700 0.093099 -0.000000
v 0.008650 0.069930 -0.000000
v 0.020801 0.093099 -0.014550
v 0.006292 0.069930 -0.008800
v 0.010150 0.093099 -0.025201
v -0.004400 0.093099 -0.029100
v 0.016050 0.116999 -0.027799
v -0.000150 0.069930 -0.015242
v -0.008950 0.069930 -0.017600
v 0.016150 0.135000 -0.027973
v -0.018950 0.093099 -0.025201
v 0.000000 0.025900 0.028500
v -0.019052 0.037030 0.025983
v -0.012950 0.022430 0.028500
v -0.022430 0.012950 0.028500
v -0.032170 0.037030 0.022976
v -0.025900 0.000000 0.028500
v 0.002976 0.037030 0.012170
v 0.002976 0.025103 0.017500
v -0.001064 0.029940 0.000948
v -0.012950 0.022430 0.017500
v -0.030344 0.007272 0.000948
v -0.006188 0.037030 0.022028
v -0.020948 0.108386 -0.025983
v -0.033812 0.108386 -0.022028
v -0.032535 0.122947 -0.019511
v -0.041164 0.122947 -0.011057
v -0.042976 0.108386 -0.012170
v -0.044065 0.122947 0.000670
v -0.042028 0.108386 0.013812
v -0.040372 0.122947 0.012172
v -0.031187 0.122947 0.020019
v -0.023897 0.130247 0.015954
v -0.028915 0.130247 0.008912
v -0.030892 0.130247 0.000495
v -0.032170 0.108386 0.022976
v -0.029534 0.130247 -0.008045
v -0.019249 0.122947 0.021871
v -0.025043 0.130247 -0.015433
v -0.019052 0.108386 0.025983
v -0.045983 0.108386 0.000948
v -0.007830 0.108386 -0.022976
v -0.020751 0.122947 -0.022171
v -0.018088 0.130247 -0.020571
v -0.016587 0.130247 0.020571
v -0.006188 0.108386 0.022028
v -0.022430 0.012950 0.017500
v -0.022430 -0.012950 0.028500
v -0.012950 -0.022430 0.028500
v -0.000000 -0.025900 0.028500
v 0.012950 -0.022430 0.028500
v 0.012950 0.022430 0.028500
v 0.022430 -0.012950 0.028500
v 0.022430 0.012950 0.028500
v 0.025900 0.000000 0.028500
v -0.042028 0.037030 0.013812
v -0.025900 0.000000 0.017500
v -0.022430 -0.012950 0.017500
v -0.012950 -0.022430 0.017500
v -0.000000 -0.025900 0.017500
v 0.000000 0.025900 0.017500
v 0.012950 -0.022430 0.017500
v 0.012950 0.022430 0.017500
v 0.022430 -0.012950 0.017500
v 0.022430 0.012950 0.017500
v 0.025900 0.000000 0.017500
v -0.045983 0.037030 0.000948
v 0.005983 0.037030 0.000948
v 0.002976 0.108386 0.012170
v 0.005983 0.108386 -0.000948
v 0.002028 0.108386 -0.013812
v -0.012950 0.022430 -0.017500
v -0.022430 0.012950 -0.017500
v 0.002028 0.037030 -0.013812
v 0.002976 0.025103 -0.017500
v -0.022430 -0.012950 -0.017500
v -0.025900 0.000000 -0.017500
v -0.012950 -0.022430 -0.017500
v -0.000000 -0.025900 -0.017500
v 0.000000 0.025900 -0.017500
v 0.012950 -0.022430 -0.017500
v 0.012950 0.022430 -0.017500
v 0.022430 -0.012950 -0.017500
v 0.022430 0.012950 -0.017500
v 0.025900 0.000000 -0.017500
v -0.022430 0.012950 -0.028500
v -0.025900 0.000000 -0.028500
v -0.033812 0.037030 -0.022028
v -0.007830 0.037030 -0.022976
v 0.000000 0.025900 -0.028500
v -0.012950 0.022430 -0.028500
v -0.020948 0.037030 -0.025983
v 0.025900 0.000000 -0.028500
v 0.022430 -0.012950 -0.028500
v -0.012950 -0.022430 -0.028500
v -0.000000 -0.025900 -0.028500
v -0.022430 -0.012950 -0.028500
v 0.012950 0.022430 -0.028500
v 0.022430 0.012950 -0.028500
v 0.012950 -0.022430 -0.028500
v -0.042976 0.037030 -0.012170
v -0.026504 0.037030 -0.024274
v -0.013496 0.037030 -0.024274
vn -0.2588 -0.0107 -0.9659
vn 0.9659 -0.0107 0.2588
vn -0.2588 -0.0107 0.9659
vn -0.7071 -0.0107 -0.7071
vn 0.7071 -0.0107 0.7071
vn 0.2588 -0.0107 0.9659
vn -0.9659 -0.0107 -0.2588
vn -0.9659 -0.0107 0.2588
vn 0.9659 -0.0107 -0.2588
vn -0.2379 -0.3939 0.8878
vn 0.6014 -0.5259 0.6014
vn 0.8028 -0.5561 0.2151
vn 0.8028 -0.5561 -0.2151
vn 0.2552 -0.1665 -0.9524
vn 0.6014 -0.5259 -0.6014
vn 0.2287 -0.4685 0.8534
vn 0.2287 -0.4685 -0.8534
vn 0.0000 -1.0000 0.0000
vn -0.7071 -0.0107 0.7071
vn 0.2588 -0.0107 -0.9659
vn 0.7071 -0.0107 -0.7071
vn 0.0000 1.0000 0.0000
vn -0.2581 -0.0734 0.9633
vn 0.9254 -0.2865 -0.2480
vn 0.6858 -0.2438 -0.6858
vn 0.6858 -0.2438 0.6858
vn 0.2552 -0.1665 0.9524
vn -0.2581 -0.0734 -0.9633
vn 0.9254 -0.2865 0.2480
vn -0.2379 -0.3939 -0.8878
vn -0.7071 0.0089 0.7071
vn -0.7071 0.0089 -0.7071
vn -0.0410 0.1531 0.9874
vn -0.3217 0.0862 0.9429
vn 0.9558 -0.1199 -0.2683
vn 0.6102 -0.7882 0.0806
vn 0.2386 0.5839 0.7760
vn -0.2886 0.1876 -0.9389
vn -0.7250 0.1418 -0.6740
vn -0.9426 0.1413 0.3026
vn -0.9615 0.1378 -0.2378
vn -0.6882 0.1818 -0.7024
vn -0.5380 0.7507 0.3833
vn -0.3850 0.8055 0.4506
vn -0.4774 0.8652 0.1533
vn -0.5091 0.8524 0.1196
vn -0.6372 0.1944 0.7458
vn -0.4049 0.8156 -0.4133
vn -0.1253 0.5753 0.8083
vn -0.5560 0.7594 -0.3379
vn -0.1477 0.2669 0.9523
vn -0.9673 0.1232 -0.2217
vn -0.9477 0.1304 0.2914
vn 0.2166 0.2445 -0.9451
vn -0.2132 0.2501 -0.9444
vn -0.6723 0.1579 0.7232
vn -0.5146 0.8535 -0.0818
vn -0.4825 0.8677 -0.1193
vn -0.5530 0.3658 -0.7486
vn -0.1744 0.6105 -0.7726
vn -0.5047 0.3264 0.7992
vn 0.2834 0.2642 0.9219
vn -0.2185 0.2083 0.9533
vn 0.7039 -0.7039 -0.0951
vn 0.0000 0.0000 1.0000
vn -0.9168 -0.3993 0.0000
vn -0.6808 -0.0060 0.7324
vn 0.8118 0.5557 0.1793
vn 0.7007 0.2911 0.6514
vn 0.0000 0.0000 -1.0000
vn -0.2528 -0.9435 -0.2140
vn -0.2588 -0.9659 0.0000
vn -0.9659 -0.2588 0.0000
vn -0.7071 -0.7071 0.0000
vn 0.2588 0.9659 -0.0000
vn 0.7071 0.7071 0.0000
vn 0.9659 0.2588 0.0000
vn 0.9659 -0.2588 0.0000
vn 0.7071 -0.7071 0.0000
vn -0.2228 0.0745 0.9720
vn -0.8914 -0.3609 0.2741
vn -0.8847 -0.4649 0.0333
vn -0.1592 0.1592 0.9743
vn 0.2588 -0.9659 0.0000
vn 0.2509 -0.9366 -0.2447
vn 0.6968 -0.6926 0.1867
vn 0.9050 -0.2425 -0.3495
vn 0.9659 0.0000 0.2588
vn 0.9747 0.0059 0.2234
vn 0.9558 -0.0078 -0.2939
vn 0.7045 -0.7045 0.0854
vn 0.9775 0.0125 0.2108
vn -0.3397 0.0910 -0.9361
vn 0.7672 0.6204 -0.1626
vn -0.0398 0.1486 -0.9881
vn -0.2540 -0.9478 0.1929
vn -0.1767 0.1767 -0.9683
vn -0.8848 -0.4650 -0.0299
vn 0.2524 -0.9421 0.2209
vn 0.9160 -0.2454 0.3174
vn 0.6968 -0.6926 -0.1867
vn 0.6106 -0.7886 -0.0723
vn -0.9081 -0.4188 0.0000
vn -0.8995 -0.3851 -0.2062
vn -0.7319 -0.0375 -0.6804
vn -0.2939 0.0038 -0.9558
vn -0.7324 0.0000 -0.6809
vn -0.9558 0.0000 0.2939
vn -0.2234 0.0000 0.9747
vn 0.2939 0.0000 0.9558
vn 0.7324 0.0000 0.6809
vn -0.6809 0.0000 0.7324
vn -0.2939 0.0000 -0.9558
vn -0.9747 0.0000 -0.2234
vn 0.2234 0.0000 -0.9747
vn 0.6555 0.2701 -0.7052
vn 0.1881 0.5396 -0.8206
vn 0.9659 0.0000 -0.2588
vn 0.6809 0.0000 -0.7324
s off
f 1//1 2//1 3//1
f 2//1 1//1 4//1
f 5//2 6//2 7//2
f 6//2 5//2 8//2
f 9//3 10//3 11//3
f 10//3 9//3 12//3
f 13//4 2//4 14//4
f 2//4 13//4 3//4
f 8//5 15//5 6//5
f 15//5 8//5 16//5
f 12//6 16//6 10//6
f 16//6 12//6 15//6
f 17//7 14//7 18//7
f 14//7 17//7 13//7
f 19//8 18//8 20//8
f 18//8 19//8 17//8
f 21//9 7//9 22//9
f 7//9 21//9 5//9
f 23//10 24//10 25//10
f 26//11 27//11 28//11
f 27//11 26//11 29//11
f 30//12 28//12 31//12
f 28//12 30//12 26//12
f 32//13 31//13 33//13
f 31//13 32//13 30//13
f 4//14 34//14 35//14
f 34//14 4//14 36//14
f 34//15 33//15 37//15
f 33//15 34//15 32//15
f 27//16 23//16 25//16
f 23//16 27//16 29//16
f 35//17 37//17 38//17
f 37//17 35//17 34//17
f 33//18 27//18 37//18
f 27//18 33//18 31//18
f 27//18 31//18 28//18
f 20//19 11//19 19//19
f 11//19 20//19 9//19
f 1//20 36//20 4//20
f 36//20 1//20 39//20
f 39//21 22//21 36//21
f 22//21 39//21 21//21
f 3//22 39//22 1//22
f 39//22 3//22 21//22
f 21//22 3//22 13//22
f 21//22 13//22 5//22
f 5//22 13//22 17//22
f 5//22 17//22 8//22
f 8//22 17//22 19//22
f 8//22 19//22 16//22
f 16//22 19//22 11//22
f 16//22 11//22 10//22
f 23//23 9//23 24//23
f 9//23 23//23 12//23
f 22//24 30//24 32//24
f 30//24 22//24 7//24
f 36//25 32//25 34//25
f 32//25 36//25 22//25
f 6//26 29//26 26//26
f 29//26 6//26 15//26
f 29//27 12//27 23//27
f 12//27 29//27 15//27
f 2//28 35//28 40//28
f 35//28 2//28 4//28
f 7//29 26//29 30//29
f 26//29 7//29 6//29
f 35//30 38//30 40//30
f 9//31 20//31 24//31
f 2//32 40//32 14//32
f 41//33 42//33 43//33
f 44//34 45//34 46//34
f 47//35 48//35 49//35
f 50//36 51//36 49//36
f 41//37 52//37 42//37
f 53//38 54//38 55//38
f 56//39 54//39 57//39
f 58//40 59//40 60//40
f 56//41 57//41 58//41
f 55//42 54//42 56//42
f 61//43 62//43 63//43
f 61//44 63//44 60//44
f 60//45 64//45 58//45
f 60//46 63//46 64//46
f 61//47 60//47 65//47
f 66//48 55//48 56//48
f 67//49 62//49 61//49
f 66//50 68//50 55//50
f 69//51 67//51 61//51
f 58//52 57//52 70//52
f 58//53 70//53 59//53
f 71//54 53//54 72//54
f 72//55 53//55 55//55
f 65//56 60//56 59//56
f 64//57 66//57 56//57
f 58//58 64//58 56//58
f 73//59 72//59 68//59
f 72//60 55//60 68//60
f 74//61 62//61 67//61
f 75//62 67//62 69//62
f 69//63 61//63 65//63
f 76//64 51//64 50//64
f 77//65 44//65 46//65
f 44//65 77//65 78//65
f 44//65 78//65 43//65
f 43//65 78//65 79//65
f 43//65 79//65 41//65
f 41//65 79//65 80//65
f 41//65 80//65 81//65
f 81//65 80//65 82//65
f 81//65 82//65 83//65
f 83//65 82//65 84//65
f 85//66 86//66 46//66
f 46//67 45//67 85//67
f 52//68 41//68 48//68
f 52//69 48//69 47//69
f 76//70 87//70 86//70
f 87//70 76//70 88//70
f 88//70 76//70 50//70
f 88//70 50//70 89//70
f 89//70 50//70 90//70
f 89//70 90//70 91//70
f 91//70 90//70 48//70
f 91//70 48//70 92//70
f 91//70 92//70 93//70
f 93//70 92//70 94//70
f 93//70 94//70 95//70
f 90//71 49//71 48//71
f 79//72 88//72 89//72
f 88//72 79//72 78//72
f 46//73 87//73 77//73
f 87//73 46//73 86//73
f 77//74 88//74 78//74
f 88//74 77//74 87//74
f 41//75 92//75 48//75
f 92//75 41//75 81//75
f 92//76 83//76 94//76
f 83//76 92//76 81//76
f 94//77 84//77 95//77
f 84//77 94//77 83//77
f 95//78 82//78 93//78
f 82//78 95//78 84//78
f 82//79 91//79 93//79
f 91//79 82//79 80//79
f 43//80 42//80 45//80
f 96//81 86//81 85//81
f 96//82 51//82 86//82
f 43//83 45//83 44//83
f 80//84 89//84 91//84
f 89//84 80//84 79//84
f 50//85 49//85 90//85
f 47//86 49//86 97//86
f 76//87 86//87 51//87
f 98//88 47//88 97//88
f 98//89 97//89 99//89
f 99//90 97//90 100//90
f 101//91 51//91 102//91
f 103//92 49//92 104//92
f 105//65 102//65 106//65
f 102//65 105//65 107//65
f 102//65 107//65 101//65
f 101//65 107//65 108//65
f 101//65 108//65 109//65
f 109//65 108//65 110//65
f 109//65 110//65 104//65
f 104//65 110//65 111//65
f 111//65 110//65 112//65
f 111//65 112//65 113//65
f 113//65 112//65 114//65
f 115//93 116//93 117//93
f 118//94 104//94 119//94
f 119//95 120//95 121//95
f 122//78 112//78 123//78
f 112//78 122//78 114//78
f 108//72 124//72 125//72
f 124//72 108//72 107//72
f 49//96 109//96 104//96
f 106//73 126//73 105//73
f 126//73 106//73 116//73
f 104//75 127//75 119//75
f 127//75 104//75 111//75
f 107//74 126//74 124//74
f 126//74 107//74 105//74
f 128//77 114//77 122//77
f 114//77 128//77 113//77
f 127//76 113//76 128//76
f 113//76 127//76 111//76
f 112//79 129//79 123//79
f 129//79 112//79 110//79
f 120//97 115//97 117//97
f 96//98 106//98 51//98
f 110//84 125//84 129//84
f 125//84 110//84 108//84
f 49//99 101//99 109//99
f 102//100 51//100 106//100
f 97//101 49//101 103//101
f 51//102 101//102 49//102
f 115//70 126//70 116//70
f 126//70 115//70 124//70
f 124//70 115//70 120//70
f 124//70 120//70 125//70
f 125//70 120//70 119//70
f 125//70 119//70 129//70
f 129//70 119//70 127//70
f 129//70 127//70 123//70
f 123//70 127//70 128//70
f 123//70 128//70 122//70
f 130//103 116//103 106//103
f 130//104 106//104 96//104
f 117//105 116//105 130//105
f 131//106 120//106 117//106
f 120//106 131//106 121//106
f 57//107 117//107 130//107
f 117//107 57//107 54//107
f 59//108 96//108 85//108
f 96//108 59//108 70//108
f 42//109 65//109 45//109
f 65//109 42//109 69//109
f 52//110 69//110 42//110
f 69//110 52//110 75//110
f 98//111 52//111 47//111
f 52//111 98//111 75//111
f 45//112 59//112 85//112
f 59//112 45//112 65//112
f 53//113 117//113 54//113
f 117//113 53//113 131//113
f 131//113 53//113 121//113
f 70//114 130//114 96//114
f 130//114 70//114 57//114
f 71//115 121//115 53//115
f 121//115 71//115 132//115
f 132//115 71//115 118//115
f 104//116 118//116 103//116
f 132//117 119//117 121//117
f 119//117 132//117 118//117
f 100//118 97//118 103//118
f 100//119 118//119 71//119
f 118//119 100//119 103//119
