####
#
# OBJ File Generated by Meshlab
#
####
# Object rotating_link_type_1_fixed_part.obj
#
# Vertices: 110
# Faces: 216
#
####
vn 3.008585 0.806148 -2.879793
v 0.026071 0.006986 0.023600
vn 3.114716 -0.000000 2.879793
v 0.026991 0.000000 0.035000
vn 3.114716 0.000000 -2.879793
v 0.026991 0.000000 0.023600
vn 3.008585 0.806148 2.879793
v 0.026071 0.006986 0.035000
vn -3.008585 -0.806148 2.879793
v -0.026071 -0.006986 0.035000
vn -3.008585 0.806148 2.879793
v -0.026071 0.006986 0.035000
vn -3.114716 0.000000 2.879793
v -0.026991 0.000000 0.035000
vn -2.697423 -1.557358 2.879793
v -0.023375 -0.013496 0.035000
vn -2.697423 1.557358 2.879793
v -0.023375 0.013496 0.035000
vn -2.202437 -2.202437 2.879793
v -0.019086 -0.019086 0.035000
vn -2.601959 0.720060 4.567416
v -0.019086 0.019086 0.035000
vn -1.557358 -2.697423 2.879793
v -0.013496 -0.023375 0.035000
vn -0.394387 0.404229 6.230287
v -0.013496 0.023375 0.035000
vn -0.806148 -3.008585 2.879793
v -0.006986 -0.026071 0.035000
vn -0.047241 0.165295 6.278429
v -0.006986 0.026071 0.035000
vn -0.000000 -3.114716 2.879793
v -0.000000 -0.026991 0.035000
vn 0.000000 0.130614 6.279900
v 0.000000 0.026991 0.035000
vn 0.806148 -3.008585 2.879793
v 0.006986 -0.026071 0.035000
vn 0.047241 0.165295 6.278429
v 0.006986 0.026071 0.035000
vn 1.557358 -2.697423 2.879793
v 0.013496 -0.023375 0.035000
vn 0.394387 0.404229 6.230287
v 0.013496 0.023375 0.035000
vn 2.202437 -2.202437 2.879793
v 0.019086 -0.019086 0.035000
vn 2.601959 0.720060 4.567416
v 0.019086 0.019086 0.035000
vn 2.697423 -1.557358 2.879793
v 0.023375 -0.013496 0.035000
vn 2.697423 1.557358 2.879793
v 0.023375 0.013496 0.035000
vn 3.008585 -0.806148 2.879793
v 0.026071 -0.006986 0.035000
vn -0.708913 3.056186 3.040534
v -0.009059 0.050000 0.033807
vn 0.000000 2.879793 3.114716
v 0.000000 0.050000 0.035000
vn 0.708913 3.056186 3.040534
v 0.009059 0.050000 0.033807
vn -1.520602 3.296760 2.724746
v -0.017500 0.050000 0.030311
vn -2.336660 2.971383 2.065772
v -0.024749 0.050000 0.024749
vn -3.967308 -0.737561 -2.262039
v -0.023375 0.013496 0.023600
vn -2.698204 2.615971 1.489150
v -0.030311 0.050000 0.017500
vn 1.520602 3.296760 2.724746
v 0.017500 0.050000 0.030311
vn 2.336660 2.971383 2.065772
v 0.024749 0.050000 0.024749
vn 3.967308 -0.737561 -2.262039
v 0.023375 0.013496 0.023600
vn 2.698204 2.615971 1.489150
v 0.030311 0.050000 0.017500
vn -2.601959 0.720060 -4.567416
v -0.019086 0.019086 -0.035000
vn -2.697423 1.557358 -2.879793
v -0.023375 0.013496 -0.035000
vn -3.967308 -0.737561 2.262039
v -0.023375 0.013496 -0.023600
vn -2.698204 2.615971 -1.489150
v -0.030311 0.050000 -0.017500
vn -2.880582 2.062353 -0.549706
v -0.033807 0.050000 -0.009059
vn -2.880582 2.062353 0.549706
v -0.033807 0.050000 0.009059
vn -3.352009 -4.227079 -1.197177
v -0.023375 0.022199 0.009059
vn -3.352009 -4.227079 1.197177
v -0.023375 0.022199 -0.009059
vn -2.825872 1.796259 -0.000000
v -0.035000 0.050000 -0.000000
vn -2.336660 2.971383 -2.065772
v -0.024749 0.050000 -0.024749
vn -1.520602 3.296760 -2.724746
v -0.017500 0.050000 -0.030311
vn -0.394387 0.404229 -6.230287
v -0.013496 0.023375 -0.035000
vn -0.708913 3.056186 -3.040534
v -0.009059 0.050000 -0.033807
vn -0.047241 0.165295 -6.278429
v -0.006986 0.026071 -0.035000
vn -0.000000 0.130614 -6.279900
v 0.000000 0.026991 -0.035000
vn 0.000000 2.879793 -3.114716
v 0.000000 0.050000 -0.035000
vn -3.008585 0.806148 -2.879793
v -0.026071 0.006986 -0.035000
vn -3.008585 0.806148 2.879793
v -0.026071 0.006986 -0.023600
vn -3.114716 0.000000 2.879793
v -0.026991 0.000000 -0.023600
vn -3.008585 -0.806148 -2.879793
v -0.026071 -0.006986 -0.035000
vn -3.008585 -0.806148 2.879793
v -0.026071 -0.006986 -0.023600
vn -3.114716 0.000000 -2.879793
v -0.026991 0.000000 -0.035000
vn -0.806148 -3.008585 2.879793
v -0.006986 -0.026071 -0.023600
vn -1.557358 -2.697423 -2.879793
v -0.013496 -0.023375 -0.035000
vn -0.806148 -3.008585 -2.879793
v -0.006986 -0.026071 -0.035000
vn -1.557358 -2.697423 2.879793
v -0.013496 -0.023375 -0.023600
vn -2.202437 -2.202437 -2.879793
v -0.019086 -0.019086 -0.035000
vn -2.202437 -2.202437 2.879793
v -0.019086 -0.019086 -0.023600
vn -2.697423 -1.557358 -2.879793
v -0.023375 -0.013496 -0.035000
vn -2.697423 -1.557358 2.879793
v -0.023375 -0.013496 -0.023600
vn 0.806148 -3.008585 2.879793
v 0.006986 -0.026071 -0.023600
vn -0.000000 -3.114716 -2.879793
v 0.000000 -0.026991 -0.035000
vn 0.806148 -3.008585 -2.879793
v 0.006986 -0.026071 -0.035000
vn 0.000000 -3.114716 2.879793
v 0.000000 -0.026991 -0.023600
vn 2.697423 -1.557358 -2.879793
v 0.023375 -0.013496 -0.035000
vn 2.202437 -2.202437 2.879793
v 0.019086 -0.019086 -0.023600
vn 2.202437 -2.202437 -2.879793
v 0.019086 -0.019086 -0.035000
vn 2.697423 -1.557358 2.879793
v 0.023375 -0.013496 -0.023600
vn 1.557358 -2.697423 -2.879793
v 0.013496 -0.023375 -0.035000
vn 1.557358 -2.697423 2.879793
v 0.013496 -0.023375 -0.023600
vn 3.008585 -0.806148 -2.879793
v 0.026071 -0.006986 -0.035000
vn 3.008585 -0.806148 2.879793
v 0.026071 -0.006986 -0.023600
vn 2.697423 1.557358 -2.879793
v 0.023375 0.013496 -0.035000
vn 3.008585 0.806148 2.879793
v 0.026071 0.006986 -0.023600
vn 3.008585 0.806148 -2.879793
v 0.026071 0.006986 -0.035000
vn 3.967308 -0.737561 2.262039
v 0.023375 0.013496 -0.023600
vn 3.114716 -0.000000 2.879793
v 0.026991 0.000000 -0.023600
vn 3.114716 0.000000 -2.879793
v 0.026991 0.000000 -0.035000
vn -3.008585 0.806148 -2.879793
v -0.026071 0.006986 0.023600
vn -3.008585 -0.806148 -2.879793
v -0.026071 -0.006986 0.023600
vn -3.114716 0.000000 -2.879793
v -0.026991 0.000000 0.023600
vn -1.557358 -2.697423 -2.879793
v -0.013496 -0.023375 0.023600
vn -0.806148 -3.008585 -2.879793
v -0.006986 -0.026071 0.023600
vn -2.202437 -2.202437 -2.879793
v -0.019086 -0.019086 0.023600
vn -2.697423 -1.557358 -2.879793
v -0.023375 -0.013496 0.023600
vn -0.000000 -3.114716 -2.879793
v -0.000000 -0.026991 0.023600
vn 0.806148 -3.008585 -2.879793
v 0.006986 -0.026071 0.023600
vn 2.697423 -1.557358 -2.879793
v 0.023375 -0.013496 0.023600
vn 2.202437 -2.202437 -2.879793
v 0.019086 -0.019086 0.023600
vn 1.557358 -2.697423 -2.879793
v 0.013496 -0.023375 0.023600
vn 3.008585 -0.806148 -2.879793
v 0.026071 -0.006986 0.023600
vn 0.708913 3.056186 -3.040534
v 0.009059 0.050000 -0.033807
vn 1.520602 3.296760 -2.724746
v 0.017500 0.050000 -0.030311
vn 2.336660 2.971383 -2.065772
v 0.024749 0.050000 -0.024749
vn 2.698204 2.615971 -1.489150
v 0.030311 0.050000 -0.017500
vn 2.880582 2.062353 -0.549706
v 0.033807 0.050000 -0.009059
vn 2.825872 1.796259 0.000000
v 0.035000 0.050000 0.000000
vn 2.880582 2.062353 0.549706
v 0.033807 0.050000 0.009059
vn 0.047241 0.165295 -6.278429
v 0.006986 0.026071 -0.035000
vn 0.394387 0.404229 -6.230287
v 0.013496 0.023375 -0.035000
vn 2.601959 0.720060 -4.567416
v 0.019086 0.019086 -0.035000
vn 3.352009 -4.227079 -1.197177
v 0.023375 0.022199 0.009059
vn 3.352009 -4.227079 1.197177
v 0.023375 0.022199 -0.009059
# 110 vertices, 0 vertices normals

f 1//1 2//2 3//3
f 2//2 1//1 4//4
f 5//5 6//6 7//7
f 6//6 5//5 8//8
f 6//6 8//8 9//9
f 9//9 8//8 10//10
f 9//9 10//10 11//11
f 11//11 10//10 12//12
f 11//11 12//12 13//13
f 13//13 12//12 14//14
f 13//13 14//14 15//15
f 15//15 14//14 16//16
f 15//15 16//16 17//17
f 17//17 16//16 18//18
f 17//17 18//18 19//19
f 19//19 18//18 20//20
f 19//19 20//20 21//21
f 21//21 20//20 22//22
f 21//21 22//22 23//23
f 23//23 22//22 24//24
f 23//23 24//24 25//25
f 25//25 24//24 26//26
f 25//25 26//26 4//4
f 4//4 26//26 2//2
f 17//17 27//27 15//15
f 28//28 27//27 17//17
f 29//29 28//28 17//17
f 29//29 17//17 19//19
f 27//27 30//30 13//13
f 15//15 27//27 13//13
f 13//13 30//30 11//11
f 30//30 31//31 11//11
f 11//11 32//32 9//9
f 31//31 32//32 11//11
f 33//33 32//32 31//31
f 21//21 29//29 19//19
f 34//34 29//29 21//21
f 35//35 34//34 23//23
f 23//23 34//34 21//21
f 23//23 25//25 36//36
f 35//35 23//23 36//36
f 35//35 36//36 37//37
f 38//38 39//39 40//40
f 41//41 40//40 42//42
f 43//43 32//32 33//33
f 43//43 44//44 32//32
f 42//42 40//40 45//45
f 42//42 45//45 46//46
f 46//46 44//44 43//43
f 46//46 45//45 44//44
f 47//47 40//40 41//41
f 47//47 38//38 40//40
f 48//48 38//38 47//47
f 49//49 38//38 48//48
f 50//50 49//49 48//48
f 51//51 49//49 50//50
f 52//52 51//51 50//50
f 52//52 50//50 53//53
f 40//40 54//54 55//55
f 54//54 40//40 39//39
f 56//56 57//57 58//58
f 57//57 56//56 59//59
f 60//60 61//61 62//62
f 61//61 60//60 63//63
f 63//63 64//64 61//61
f 64//64 63//63 65//65
f 58//58 66//66 67//67
f 66//66 58//58 57//57
f 68//68 69//69 70//70
f 69//69 68//68 71//71
f 55//55 59//59 56//56
f 59//59 55//55 54//54
f 72//72 73//73 74//74
f 73//73 72//72 75//75
f 73//73 76//76 74//74
f 76//76 73//73 77//77
f 71//71 62//62 69//69
f 62//62 71//71 60//60
f 67//67 64//64 65//65
f 64//64 67//67 66//66
f 78//78 75//75 72//72
f 75//75 78//78 79//79
f 77//77 70//70 76//76
f 70//70 77//77 68//68
f 80//80 81//81 82//82
f 81//81 80//80 83//83
f 82//82 84//84 85//85
f 84//84 82//82 81//81
f 85//85 79//79 78//78
f 79//79 85//85 84//84
f 58//58 55//55 56//56
f 55//55 58//58 67//67
f 55//55 67//67 40//40
f 40//40 67//67 65//65
f 40//40 65//65 83//83
f 83//83 65//65 63//63
f 83//83 63//63 60//60
f 83//83 60//60 71//71
f 83//83 71//71 68//68
f 83//83 68//68 77//77
f 83//83 77//77 73//73
f 83//83 73//73 75//75
f 83//83 75//75 79//79
f 83//83 79//79 81//81
f 81//81 79//79 84//84
f 9//9 86//86 6//6
f 86//86 9//9 32//32
f 7//7 87//87 5//5
f 87//87 7//7 88//88
f 14//14 89//89 90//90
f 89//89 14//14 12//12
f 12//12 91//91 89//89
f 91//91 12//12 10//10
f 5//5 92//92 8//8
f 92//92 5//5 87//87
f 18//18 93//93 94//94
f 93//93 18//18 16//16
f 6//6 88//88 7//7
f 88//88 6//6 86//86
f 95//95 22//22 96//96
f 22//22 95//95 24//24
f 22//22 97//97 96//96
f 97//97 22//22 20//20
f 16//16 90//90 93//93
f 90//90 16//16 14//14
f 8//8 91//91 10//10
f 91//91 8//8 92//92
f 98//98 24//24 95//95
f 24//24 98//98 26//26
f 20//20 94//94 97//97
f 94//94 20//20 18//18
f 36//36 4//4 1//1
f 4//4 36//36 25//25
f 3//3 26//26 98//98
f 26//26 3//3 2//2
f 50//50 99//99 53//53
f 99//99 50//50 48//48
f 99//99 48//48 100//100
f 100//100 48//48 47//47
f 100//100 47//47 101//101
f 101//101 47//47 41//41
f 101//101 41//41 102//102
f 102//102 41//41 42//42
f 102//102 42//42 103//103
f 103//103 42//42 46//46
f 103//103 46//46 104//104
f 104//104 46//46 43//43
f 104//104 43//43 105//105
f 105//105 43//43 33//33
f 105//105 33//33 37//37
f 37//37 33//33 31//31
f 37//37 31//31 35//35
f 35//35 31//31 30//30
f 35//35 30//30 34//34
f 34//34 30//30 27//27
f 34//34 27//27 29//29
f 29//29 27//27 28//28
f 37//37 36//36 105//105
f 99//99 52//52 53//53
f 103//103 83//83 102//102
f 99//99 106//106 52//52
f 107//107 106//106 99//99
f 100//100 107//107 99//99
f 102//102 83//83 101//101
f 101//101 83//83 108//108
f 104//104 109//109 110//110
f 105//105 109//109 104//104
f 104//104 110//110 103//103
f 105//105 36//36 109//109
f 103//103 110//110 83//83
f 108//108 107//107 100//100
f 101//101 108//108 100//100
f 108//108 83//83 80//80
f 54//54 57//57 59//59
f 57//57 54//54 66//66
f 66//66 54//54 39//39
f 66//66 39//39 64//64
f 64//64 39//39 38//38
f 64//64 38//38 61//61
f 61//61 38//38 49//49
f 61//61 49//49 62//62
f 62//62 49//49 51//51
f 62//62 51//51 69//69
f 69//69 51//51 52//52
f 69//69 52//52 70//70
f 70//70 52//52 106//106
f 70//70 106//106 76//76
f 76//76 106//106 107//107
f 76//76 107//107 74//74
f 74//74 107//107 108//108
f 74//74 108//108 80//80
f 74//74 80//80 72//72
f 72//72 80//80 78//78
f 78//78 80//80 82//82
f 78//78 82//82 85//85
f 86//86 87//87 88//88
f 87//87 86//86 92//92
f 92//92 86//86 32//32
f 92//92 32//32 91//91
f 91//91 32//32 36//36
f 91//91 36//36 89//89
f 89//89 36//36 90//90
f 90//90 36//36 93//93
f 93//93 36//36 94//94
f 94//94 36//36 97//97
f 97//97 36//36 96//96
f 96//96 36//36 95//95
f 95//95 36//36 98//98
f 98//98 36//36 1//1
f 98//98 1//1 3//3
f 109//109 32//32 44//44
f 32//32 109//109 36//36
f 109//109 45//45 110//110
f 45//45 109//109 44//44
f 110//110 40//40 83//83
f 40//40 110//110 45//45
# 216 faces, 0 coords texture

# End of File
