# Blender v2.93.5 OBJ File: ''
# www.blender.org
o wide_two_finger_gripper_finger_a.001
v 0.012000 0.060000 -0.027000
v 0.011000 0.058000 -0.027000
v 0.007000 0.060000 -0.027000
v 0.012000 0.058000 -0.027000
v -0.013000 0.040000 -0.027000
v 0.002000 0.046414 -0.027000
v -0.013000 -0.009710 -0.027000
v 0.011000 0.055414 -0.027000
v 0.002000 -0.009710 -0.027000
v 0.002000 -0.011900 0.027000
v -0.013000 0.040000 0.027000
v -0.013000 -0.011900 0.027000
v 0.002000 0.046414 0.027000
v 0.007000 0.060000 0.027000
v 0.011000 0.055414 0.027000
v 0.011000 0.058000 0.027000
v 0.012000 0.060000 0.027000
v 0.012000 0.058000 0.027000
v -0.013000 -0.011900 0.022000
v 0.002000 -0.011900 0.022000
v -0.013000 0.015199 0.022000
v -0.013000 0.015199 -0.022000
v -0.013000 -0.009710 -0.022000
v 0.002000 -0.009710 -0.022000
v 0.002000 0.019900 -0.022000
v 0.002000 0.019900 0.022000
vn 0.0000 0.0000 -1.0000
vn 0.0000 0.0000 1.0000
vn 0.7071 -0.7071 0.0000
vn 0.0000 -1.0000 0.0000
vn -1.0000 0.0000 0.0000
vn -0.7071 0.7071 0.0000
vn 0.0000 1.0000 0.0000
vn 1.0000 0.0000 0.0000
vn 0.2991 -0.9542 0.0000
s off
f 1//1 2//1 3//1
f 2//1 1//1 4//1
f 5//1 6//1 7//1
f 6//1 5//1 3//1
f 6//1 3//1 8//1
f 8//1 3//1 2//1
f 9//1 7//1 6//1
f 10//2 11//2 12//2
f 11//2 10//2 13//2
f 11//2 13//2 14//2
f 14//2 13//2 15//2
f 14//2 15//2 16//2
f 14//2 16//2 17//2
f 17//2 16//2 18//2
f 15//3 6//3 8//3
f 6//3 15//3 13//3
f 10//4 19//4 20//4
f 19//4 10//4 12//4
f 11//5 19//5 12//5
f 19//5 11//5 21//5
f 21//5 11//5 22//5
f 23//5 5//5 7//5
f 5//5 23//5 22//5
f 5//5 22//5 11//5
f 11//6 3//6 5//6
f 3//6 11//6 14//6
f 14//7 1//7 3//7
f 1//7 14//7 17//7
f 1//8 18//8 4//8
f 18//8 1//8 17//8
f 18//4 2//4 4//4
f 2//4 18//4 16//4
f 2//8 15//8 8//8
f 15//8 2//8 16//8
f 6//8 24//8 9//8
f 24//8 6//8 25//8
f 25//8 6//8 26//8
f 20//8 13//8 10//8
f 13//8 20//8 26//8
f 13//8 26//8 6//8
f 24//2 22//2 23//2
f 22//2 24//2 25//2
f 26//9 22//9 25//9
f 22//9 26//9 21//9
f 26//1 19//1 21//1
f 19//1 26//1 20//1
f 24//4 7//4 9//4
f 7//4 24//4 23//4
