# Blender v2.93.5 OBJ File: ''
# www.blender.org
o wrist.001
v -0.041007 0.010988 -0.017487
v -0.041007 -0.010988 -0.017487
v -0.042453 -0.000000 -0.017487
v -0.037667 0.019050 -0.017487
v -0.036766 -0.021227 -0.017487
v 0.037667 0.019050 -0.017487
v -0.030019 -0.030019 -0.017487
v -0.021227 -0.036766 -0.017487
v -0.010988 -0.041007 -0.017487
v 0.000000 -0.042453 -0.017487
v 0.010988 -0.041007 -0.017487
v 0.021227 -0.036766 -0.017487
v 0.030019 -0.030019 -0.017487
v 0.036766 -0.021227 -0.017487
v 0.041007 -0.010988 -0.017487
v 0.041007 0.010988 -0.017487
v 0.042453 0.000000 -0.017487
v -0.042453 -0.000000 0.017500
v -0.041007 -0.010988 0.017500
v 0.041007 0.010988 0.017500
v 0.037667 0.019050 0.017500
v 0.041007 -0.010988 0.017500
v 0.042453 0.000000 0.017500
v 0.030019 -0.030019 0.017500
v 0.036766 -0.021227 0.017500
v -0.037667 0.019050 0.017500
v -0.041007 0.010988 0.017500
v 0.021227 -0.036766 0.017500
v -0.036766 -0.021227 0.017500
v -0.010988 -0.041007 0.017500
v -0.021227 -0.036766 0.017500
v -0.030019 -0.030019 0.017500
v 0.010988 -0.041007 0.017500
v 0.000000 -0.042453 0.017500
vn 0.0000 0.0000 -1.0000
vn -0.9914 -0.1305 0.0000
vn 0.9239 0.3827 0.0000
vn 0.9914 -0.1305 0.0000
vn 0.7934 -0.6088 0.0000
vn -0.9239 0.3827 0.0000
vn 0.6088 -0.7934 0.0000
vn 0.9239 -0.3827 0.0000
vn 0.9914 0.1305 0.0000
vn -0.9914 0.1305 0.0000
vn -0.9239 -0.3827 0.0000
vn -0.3827 -0.9239 0.0000
vn -0.6088 -0.7934 0.0000
vn 0.1305 -0.9914 0.0000
vn 0.3827 -0.9239 0.0000
vn -0.1305 -0.9914 0.0000
vn -0.7934 -0.6088 0.0000
vn 0.0000 0.0000 1.0000
vn 0.0000 1.0000 0.0000
s off
f 1//1 2//1 3//1
f 2//1 1//1 4//1
f 2//1 4//1 5//1
f 5//1 4//1 6//1
f 5//1 6//1 7//1
f 7//1 6//1 8//1
f 8//1 6//1 9//1
f 9//1 6//1 10//1
f 10//1 6//1 11//1
f 11//1 6//1 12//1
f 12//1 6//1 13//1
f 13//1 6//1 14//1
f 14//1 6//1 15//1
f 15//1 6//1 16//1
f 15//1 16//1 17//1
f 18//2 2//2 19//2
f 2//2 18//2 3//2
f 6//3 20//3 16//3
f 20//3 6//3 21//3
f 17//4 22//4 15//4
f 22//4 17//4 23//4
f 14//5 24//5 13//5
f 24//5 14//5 25//5
f 26//6 1//6 27//6
f 1//6 26//6 4//6
f 24//7 12//7 13//7
f 12//7 24//7 28//7
f 15//8 25//8 14//8
f 25//8 15//8 22//8
f 16//9 23//9 17//9
f 23//9 16//9 20//9
f 27//10 3//10 18//10
f 3//10 27//10 1//10
f 19//11 5//11 29//11
f 5//11 19//11 2//11
f 30//12 8//12 9//12
f 8//12 30//12 31//12
f 31//13 7//13 8//13
f 7//13 31//13 32//13
f 33//14 10//14 11//14
f 10//14 33//14 34//14
f 28//15 11//15 12//15
f 11//15 28//15 33//15
f 34//16 9//16 10//16
f 9//16 34//16 30//16
f 29//17 7//17 32//17
f 7//17 29//17 5//17
f 19//18 27//18 18//18
f 27//18 19//18 26//18
f 26//18 19//18 29//18
f 26//18 29//18 21//18
f 21//18 29//18 32//18
f 21//18 32//18 31//18
f 21//18 31//18 30//18
f 21//18 30//18 34//18
f 21//18 34//18 33//18
f 21//18 33//18 28//18
f 21//18 28//18 24//18
f 21//18 24//18 25//18
f 21//18 25//18 22//18
f 21//18 22//18 20//18
f 20//18 22//18 23//18
f 26//19 6//19 4//19
f 6//19 26//19 21//19
