# Blender v2.93.5 OBJ File: ''
# www.blender.org
o mounting_plate
v -0.079749 0.042225 0.005000
v -0.080000 0.040000 0.000000
v -0.080000 0.040000 0.005000
v -0.079749 0.042225 0.000000
v -0.079010 0.044339 0.005000
v -0.079010 0.044339 0.000000
v -0.077818 0.046235 0.005000
v -0.077818 0.046235 0.000000
v -0.076235 0.047818 0.005000
v -0.076235 0.047818 0.000000
v -0.074339 0.049010 0.000000
v -0.074339 0.049010 0.005000
v -0.072225 0.049749 0.000000
v -0.072225 0.049749 0.005000
v -0.070000 0.050000 0.000000
v -0.070000 0.050000 0.005000
v -0.080000 -0.040000 0.000000
v -0.080000 -0.040000 0.005000
v -0.070000 -0.050000 0.000000
v -0.039782 -0.023904 0.000000
v -0.000000 -0.050000 0.000000
v -0.040375 -0.023310 0.000000
v -0.040592 -0.022500 0.000000
v -0.040592 0.022500 0.000000
v -0.038971 -0.024121 0.000000
v -0.038161 -0.023904 0.000000
v -0.037567 -0.023310 0.000000
v -0.037350 -0.022500 0.000000
v -0.001404 -0.045810 0.000000
v -0.001621 -0.045000 0.000000
v -0.001621 0.045000 0.000000
v -0.000810 -0.046404 0.000000
v -0.000000 -0.046621 0.000000
v 0.000811 -0.046404 0.000000
v 0.005058 -0.049743 0.000000
v 0.001404 -0.045810 0.000000
v 0.001621 -0.045000 0.000000
v 0.005058 0.049743 0.000000
v 0.010065 0.048976 0.000000
v 0.010065 -0.048976 0.000000
v 0.014968 0.047707 0.000000
v 0.014968 -0.047707 0.000000
v 0.019718 0.045948 0.000000
v 0.019718 -0.045948 0.000000
v 0.024265 0.043717 0.000000
v 0.024265 -0.043717 0.000000
v 0.028563 0.041038 0.000000
v 0.028563 -0.041038 0.000000
v 0.032569 0.037938 0.000000
v 0.032569 -0.037938 0.000000
v 0.036240 0.034448 0.000000
v 0.036240 -0.034448 0.000000
v 0.037350 0.022500 0.000000
v 0.037567 0.023310 0.000000
v 0.039539 0.030605 0.000000
v 0.038161 0.023904 0.000000
v 0.038971 0.024121 0.000000
v 0.039782 0.023904 0.000000
v 0.042432 0.026448 0.000000
v 0.040375 0.023310 0.000000
v 0.040592 0.022500 0.000000
v 0.040592 -0.022500 0.000000
v 0.037567 -0.023310 0.000000
v 0.039539 -0.030605 0.000000
v 0.037350 -0.022500 0.000000
v 0.038161 -0.023904 0.000000
v 0.038971 -0.024121 0.000000
v 0.039782 -0.023904 0.000000
v 0.042432 -0.026448 0.000000
v 0.040375 -0.023310 0.000000
v 0.044890 0.022020 0.000000
v 0.044890 -0.022020 0.000000
v 0.046888 0.017365 0.000000
v 0.046888 -0.017365 0.000000
v 0.048404 0.012533 0.000000
v 0.048404 -0.012533 0.000000
v 0.049423 0.007571 0.000000
v 0.049423 -0.007571 0.000000
v 0.049936 0.002532 0.000000
v 0.049936 -0.002532 0.000000
v 0.037567 0.021690 0.000000
v 0.037567 -0.021690 0.000000
v 0.038161 0.021096 0.000000
v 0.038161 -0.021096 0.000000
v 0.038971 0.020879 0.000000
v 0.038971 -0.020879 0.000000
v 0.039782 0.021096 0.000000
v 0.039782 -0.021096 0.000000
v 0.040375 0.021690 0.000000
v 0.040375 -0.021690 0.000000
v -0.079749 -0.042225 0.000000
v -0.079010 -0.044339 0.000000
v -0.077818 -0.046235 0.000000
v -0.076235 -0.047818 0.000000
v -0.074339 -0.049010 0.000000
v -0.072225 -0.049749 0.000000
v -0.040375 0.023310 0.000000
v -0.039782 0.023904 0.000000
v -0.000000 0.050000 0.000000
v -0.038971 0.024121 0.000000
v -0.038161 0.023904 0.000000
v -0.037567 0.023310 0.000000
v -0.037350 0.022500 0.000000
v -0.001404 0.045810 0.000000
v -0.000810 0.046404 0.000000
v -0.000000 0.046621 0.000000
v 0.000811 0.046404 0.000000
v 0.001404 0.045810 0.000000
v 0.001621 0.045000 0.000000
v -0.001404 0.044190 0.000000
v -0.001404 -0.044190 0.000000
v -0.000810 0.043596 0.000000
v -0.000810 -0.043596 0.000000
v -0.000000 0.043379 0.000000
v -0.000000 -0.043379 0.000000
v 0.000811 0.043596 0.000000
v 0.000811 -0.043596 0.000000
v 0.001404 0.044190 0.000000
v 0.001404 -0.044190 0.000000
v -0.040375 0.021690 0.000000
v -0.040375 -0.021690 0.000000
v -0.039782 0.021096 0.000000
v -0.039782 -0.021096 0.000000
v -0.038971 0.020879 0.000000
v -0.038971 -0.020879 0.000000
v -0.038161 0.021096 0.000000
v -0.038161 -0.021096 0.000000
v -0.037567 0.021690 0.000000
v -0.037567 -0.021690 0.000000
v -0.070000 -0.050000 0.005000
v -0.072225 -0.049749 0.005000
v -0.074339 -0.049010 0.005000
v -0.076235 -0.047818 0.005000
v -0.077818 -0.046235 0.005000
v -0.079010 -0.044339 0.005000
v -0.079749 -0.042225 0.005000
v -0.000000 -0.050000 0.005000
v -0.040592 -0.022500 0.005000
v -0.040375 -0.021690 0.005000
v -0.040375 -0.023310 0.005000
v -0.039782 -0.023904 0.005000
v -0.038971 -0.024121 0.005000
v -0.038161 -0.023904 0.005000
v -0.037567 -0.023310 0.005000
v -0.037350 -0.022500 0.005000
v -0.037567 -0.021690 0.005000
v -0.038161 -0.021096 0.005000
v -0.038971 -0.020879 0.005000
v -0.039782 -0.021096 0.005000
v 0.037350 -0.022500 0.005000
v 0.037567 -0.021690 0.005000
v 0.037567 -0.023310 0.005000
v 0.038161 -0.023904 0.005000
v 0.038971 -0.024121 0.005000
v 0.039782 -0.023904 0.005000
v 0.040375 -0.023310 0.005000
v 0.040592 -0.022500 0.005000
v 0.040375 -0.021690 0.005000
v 0.039782 -0.021096 0.005000
v 0.038971 -0.020879 0.005000
v 0.038161 -0.021096 0.005000
v -0.001621 0.045000 0.005000
v -0.001404 0.045810 0.005000
v -0.001404 0.044190 0.005000
v -0.000810 0.043596 0.005000
v -0.000000 0.043379 0.005000
v 0.000811 0.043596 0.005000
v 0.001404 0.044190 0.005000
v 0.001621 0.045000 0.005000
v 0.001404 0.045810 0.005000
v 0.000811 0.046404 0.005000
v -0.000000 0.046621 0.005000
v -0.000810 0.046404 0.005000
v 0.037350 0.022500 0.005000
v 0.037567 0.023310 0.005000
v 0.037567 0.021690 0.005000
v 0.038161 0.021096 0.005000
v 0.038971 0.020879 0.005000
v 0.039782 0.021096 0.005000
v 0.040375 0.021690 0.005000
v 0.040592 0.022500 0.005000
v 0.040375 0.023310 0.005000
v 0.039782 0.023904 0.005000
v 0.038971 0.024121 0.005000
v 0.038161 0.023904 0.005000
v -0.001621 -0.045000 0.005000
v -0.001404 -0.044190 0.005000
v -0.001404 -0.045810 0.005000
v -0.000810 -0.046404 0.005000
v -0.000000 -0.046621 0.005000
v 0.000811 -0.046404 0.005000
v 0.001404 -0.045810 0.005000
v 0.001621 -0.045000 0.005000
v 0.001404 -0.044190 0.005000
v 0.000811 -0.043596 0.005000
v -0.000000 -0.043379 0.005000
v -0.000810 -0.043596 0.005000
v -0.040592 0.022500 0.005000
v -0.040375 0.023310 0.005000
v -0.040375 0.021690 0.005000
v -0.039782 0.021096 0.005000
v -0.038971 0.020879 0.005000
v -0.038161 0.021096 0.005000
v -0.037567 0.021690 0.005000
v -0.037350 0.022500 0.005000
v -0.037567 0.023310 0.005000
v -0.038161 0.023904 0.005000
v -0.038971 0.024121 0.005000
v -0.039782 0.023904 0.005000
v -0.000000 0.050000 0.005000
v 0.005058 0.049743 0.005000
v 0.010065 0.048976 0.005000
v 0.014968 0.047707 0.005000
v 0.019718 0.045948 0.005000
v 0.024265 0.043717 0.005000
v 0.028563 0.041038 0.005000
v 0.032569 0.037938 0.005000
v 0.036240 0.034448 0.005000
v 0.039539 0.030605 0.005000
v 0.042432 0.026448 0.005000
v 0.044890 0.022020 0.005000
v 0.046888 0.017365 0.005000
v 0.048404 0.012533 0.005000
v 0.049423 0.007571 0.005000
v 0.049936 0.002532 0.005000
v 0.049936 -0.002532 0.005000
v 0.049423 -0.007571 0.005000
v 0.048404 -0.012533 0.005000
v 0.046888 -0.017365 0.005000
v 0.044890 -0.022020 0.005000
v 0.042432 -0.026448 0.005000
v 0.039539 -0.030605 0.005000
v 0.036240 -0.034448 0.005000
v 0.032569 -0.037938 0.005000
v 0.028563 -0.041038 0.005000
v 0.024265 -0.043717 0.005000
v 0.019718 -0.045948 0.005000
v 0.014968 -0.047707 0.005000
v 0.010065 -0.048976 0.005000
v 0.005058 -0.049743 0.005000
vn -0.9937 0.1120 0.0000
vn -0.9439 0.3303 0.0000
vn -0.8467 0.5320 0.0000
vn -0.7071 0.7071 0.0000
vn -0.5320 0.8467 0.0000
vn -0.3303 0.9439 0.0000
vn -0.1120 0.9937 0.0000
vn -1.0000 0.0000 0.0000
vn 0.0000 0.0000 -1.0000
vn -0.1120 -0.9937 0.0000
vn -0.3303 -0.9439 0.0000
vn -0.5320 -0.8467 0.0000
vn -0.7071 -0.7071 0.0000
vn -0.8467 -0.5320 0.0000
vn -0.9439 -0.3303 0.0000
vn -0.9937 -0.1120 0.0000
vn 0.0000 -1.0000 0.0000
vn 0.9659 -0.2588 0.0000
vn 0.9659 0.2588 0.0000
vn 0.7071 0.7071 0.0000
vn 0.2588 0.9659 0.0000
vn -0.2588 0.9659 0.0000
vn -0.9659 0.2588 0.0000
vn -0.9659 -0.2588 0.0000
vn -0.2588 -0.9659 0.0000
vn 0.2588 -0.9659 0.0000
vn 0.7071 -0.7071 0.0000
vn 0.0506 0.9987 0.0000
vn 0.1514 0.9885 0.0000
vn 0.2507 0.9681 0.0000
vn 0.3473 0.9378 0.0000
vn 0.4404 0.8978 0.0000
vn 0.5290 0.8486 0.0000
vn 0.6121 0.7908 0.0000
vn 0.6890 0.7248 0.0000
vn 0.7588 0.6514 0.0000
vn 0.8208 0.5713 0.0000
vn 0.8743 0.4853 0.0000
vn 0.9190 0.3944 0.0000
vn 0.9541 0.2994 0.0000
vn 0.9795 0.2013 0.0000
vn 0.9949 0.1012 0.0000
vn 1.0000 0.0000 0.0000
vn 0.9949 -0.1012 0.0000
vn 0.9795 -0.2013 0.0000
vn 0.9541 -0.2994 0.0000
vn 0.9190 -0.3944 0.0000
vn 0.8743 -0.4853 0.0000
vn 0.8208 -0.5713 0.0000
vn 0.7588 -0.6514 0.0000
vn 0.6890 -0.7248 0.0000
vn 0.6121 -0.7908 0.0000
vn 0.5290 -0.8486 0.0000
vn 0.4404 -0.8978 0.0000
vn 0.3473 -0.9378 0.0000
vn 0.2507 -0.9681 0.0000
vn 0.1514 -0.9885 0.0000
vn 0.0506 -0.9987 0.0000
vn 0.0000 1.0000 0.0000
vn 0.0000 0.0000 1.0000
s off
f 1//1 2//1 3//1
f 2//1 1//1 4//1
f 5//2 4//2 1//2
f 4//2 5//2 6//2
f 7//3 6//3 5//3
f 6//3 7//3 8//3
f 9//4 8//4 7//4
f 8//4 9//4 10//4
f 9//5 11//5 10//5
f 11//5 9//5 12//5
f 12//6 13//6 11//6
f 13//6 12//6 14//6
f 14//7 15//7 13//7
f 15//7 14//7 16//7
f 3//8 17//8 18//8
f 17//8 3//8 2//8
f 19//9 20//9 21//9
f 20//9 19//9 22//9
f 22//9 19//9 23//9
f 23//9 19//9 24//9
f 21//9 20//9 25//9
f 21//9 25//9 26//9
f 21//9 26//9 27//9
f 21//9 27//9 28//9
f 21//9 28//9 29//9
f 29//9 28//9 30//9
f 30//9 28//9 31//9
f 21//9 29//9 32//9
f 21//9 32//9 33//9
f 21//9 33//9 34//9
f 21//9 34//9 35//9
f 35//9 34//9 36//9
f 35//9 36//9 37//9
f 35//9 37//9 38//9
f 35//9 38//9 39//9
f 35//9 39//9 40//9
f 40//9 39//9 41//9
f 40//9 41//9 42//9
f 42//9 41//9 43//9
f 42//9 43//9 44//9
f 44//9 43//9 45//9
f 44//9 45//9 46//9
f 46//9 45//9 47//9
f 46//9 47//9 48//9
f 48//9 47//9 49//9
f 48//9 49//9 50//9
f 50//9 49//9 51//9
f 50//9 51//9 52//9
f 52//9 51//9 53//9
f 53//9 51//9 54//9
f 54//9 51//9 55//9
f 54//9 55//9 56//9
f 56//9 55//9 57//9
f 57//9 55//9 58//9
f 58//9 55//9 59//9
f 58//9 59//9 60//9
f 60//9 59//9 61//9
f 61//9 59//9 62//9
f 52//9 63//9 64//9
f 63//9 52//9 65//9
f 65//9 52//9 53//9
f 64//9 63//9 66//9
f 64//9 66//9 67//9
f 64//9 67//9 68//9
f 64//9 68//9 69//9
f 69//9 68//9 70//9
f 69//9 70//9 62//9
f 69//9 62//9 59//9
f 69//9 59//9 71//9
f 69//9 71//9 72//9
f 72//9 71//9 73//9
f 72//9 73//9 74//9
f 74//9 73//9 75//9
f 74//9 75//9 76//9
f 76//9 75//9 77//9
f 76//9 77//9 78//9
f 78//9 77//9 79//9
f 78//9 79//9 80//9
f 81//9 65//9 53//9
f 65//9 81//9 82//9
f 82//9 81//9 83//9
f 82//9 83//9 84//9
f 84//9 83//9 85//9
f 84//9 85//9 86//9
f 86//9 85//9 87//9
f 86//9 87//9 88//9
f 88//9 87//9 89//9
f 88//9 89//9 90//9
f 90//9 89//9 61//9
f 90//9 61//9 62//9
f 4//9 17//9 2//9
f 17//9 4//9 91//9
f 91//9 4//9 6//9
f 91//9 6//9 92//9
f 92//9 6//9 8//9
f 92//9 8//9 93//9
f 93//9 8//9 10//9
f 93//9 10//9 94//9
f 94//9 10//9 11//9
f 94//9 11//9 95//9
f 95//9 11//9 13//9
f 95//9 13//9 96//9
f 96//9 13//9 15//9
f 96//9 15//9 19//9
f 19//9 15//9 97//9
f 97//9 15//9 98//9
f 98//9 15//9 99//9
f 19//9 97//9 24//9
f 98//9 99//9 100//9
f 100//9 99//9 101//9
f 101//9 99//9 102//9
f 102//9 99//9 103//9
f 103//9 99//9 28//9
f 28//9 99//9 104//9
f 28//9 104//9 31//9
f 104//9 99//9 105//9
f 105//9 99//9 106//9
f 106//9 99//9 38//9
f 106//9 38//9 107//9
f 107//9 38//9 108//9
f 108//9 38//9 109//9
f 109//9 38//9 37//9
f 110//9 30//9 31//9
f 30//9 110//9 111//9
f 111//9 110//9 112//9
f 111//9 112//9 113//9
f 113//9 112//9 114//9
f 113//9 114//9 115//9
f 115//9 114//9 116//9
f 115//9 116//9 117//9
f 117//9 116//9 118//9
f 117//9 118//9 119//9
f 119//9 118//9 109//9
f 119//9 109//9 37//9
f 120//9 23//9 24//9
f 23//9 120//9 121//9
f 121//9 120//9 122//9
f 121//9 122//9 123//9
f 123//9 122//9 124//9
f 123//9 124//9 125//9
f 125//9 124//9 126//9
f 125//9 126//9 127//9
f 127//9 126//9 128//9
f 127//9 128//9 129//9
f 129//9 128//9 103//9
f 129//9 103//9 28//9
f 130//10 96//10 19//10
f 96//10 130//10 131//10
f 131//11 95//11 96//11
f 95//11 131//11 132//11
f 132//12 94//12 95//12
f 94//12 132//12 133//12
f 134//13 94//13 133//13
f 94//13 134//13 93//13
f 135//14 93//14 134//14
f 93//14 135//14 92//14
f 136//15 92//15 135//15
f 92//15 136//15 91//15
f 18//16 91//16 136//16
f 91//16 18//16 17//16
f 137//17 19//17 21//17
f 19//17 137//17 130//17
f 121//18 138//18 23//18
f 138//18 121//18 139//18
f 23//19 140//19 22//19
f 140//19 23//19 138//19
f 140//20 20//20 22//20
f 20//20 140//20 141//20
f 141//21 25//21 20//21
f 25//21 141//21 142//21
f 142//22 26//22 25//22
f 26//22 142//22 143//22
f 143//4 27//4 26//4
f 27//4 143//4 144//4
f 145//23 27//23 144//23
f 27//23 145//23 28//23
f 146//24 28//24 145//24
f 28//24 146//24 129//24
f 146//13 127//13 129//13
f 127//13 146//13 147//13
f 147//25 125//25 127//25
f 125//25 147//25 148//25
f 148//26 123//26 125//26
f 123//26 148//26 149//26
f 149//27 121//27 123//27
f 121//27 149//27 139//27
f 82//18 150//18 65//18
f 150//18 82//18 151//18
f 65//19 152//19 63//19
f 152//19 65//19 150//19
f 152//20 66//20 63//20
f 66//20 152//20 153//20
f 153//21 67//21 66//21
f 67//21 153//21 154//21
f 154//22 68//22 67//22
f 68//22 154//22 155//22
f 156//4 68//4 155//4
f 68//4 156//4 70//4
f 157//23 70//23 156//23
f 70//23 157//23 62//23
f 158//24 62//24 157//24
f 62//24 158//24 90//24
f 159//13 90//13 158//13
f 90//13 159//13 88//13
f 159//25 86//25 88//25
f 86//25 159//25 160//25
f 160//26 84//26 86//26
f 84//26 160//26 161//26
f 161//27 82//27 84//27
f 82//27 161//27 151//27
f 104//18 162//18 31//18
f 162//18 104//18 163//18
f 31//19 164//19 110//19
f 164//19 31//19 162//19
f 164//20 112//20 110//20
f 112//20 164//20 165//20
f 165//21 114//21 112//21
f 114//21 165//21 166//21
f 166//22 116//22 114//22
f 116//22 166//22 167//22
f 167//4 118//4 116//4
f 118//4 167//4 168//4
f 169//23 118//23 168//23
f 118//23 169//23 109//23
f 170//24 109//24 169//24
f 109//24 170//24 108//24
f 171//13 108//13 170//13
f 108//13 171//13 107//13
f 171//25 106//25 107//25
f 106//25 171//25 172//25
f 172//26 105//26 106//26
f 105//26 172//26 173//26
f 105//27 163//27 104//27
f 163//27 105//27 173//27
f 54//18 174//18 53//18
f 174//18 54//18 175//18
f 53//19 176//19 81//19
f 176//19 53//19 174//19
f 176//20 83//20 81//20
f 83//20 176//20 177//20
f 177//21 85//21 83//21
f 85//21 177//21 178//21
f 178//22 87//22 85//22
f 87//22 178//22 179//22
f 180//4 87//4 179//4
f 87//4 180//4 89//4
f 181//23 89//23 180//23
f 89//23 181//23 61//23
f 182//24 61//24 181//24
f 61//24 182//24 60//24
f 183//13 60//13 182//13
f 60//13 183//13 58//13
f 183//25 57//25 58//25
f 57//25 183//25 184//25
f 184//26 56//26 57//26
f 56//26 184//26 185//26
f 185//27 54//27 56//27
f 54//27 185//27 175//27
f 111//18 186//18 30//18
f 186//18 111//18 187//18
f 30//19 188//19 29//19
f 188//19 30//19 186//19
f 29//20 189//20 32//20
f 189//20 29//20 188//20
f 189//21 33//21 32//21
f 33//21 189//21 190//21
f 190//22 34//22 33//22
f 34//22 190//22 191//22
f 192//4 34//4 191//4
f 34//4 192//4 36//4
f 193//23 36//23 192//23
f 36//23 193//23 37//23
f 194//24 37//24 193//24
f 37//24 194//24 119//24
f 194//13 117//13 119//13
f 117//13 194//13 195//13
f 195//25 115//25 117//25
f 115//25 195//25 196//25
f 196//26 113//26 115//26
f 113//26 196//26 197//26
f 197//27 111//27 113//27
f 111//27 197//27 187//27
f 97//18 198//18 24//18
f 198//18 97//18 199//18
f 24//19 200//19 120//19
f 200//19 24//19 198//19
f 200//20 122//20 120//20
f 122//20 200//20 201//20
f 201//21 124//21 122//21
f 124//21 201//21 202//21
f 202//22 126//22 124//22
f 126//22 202//22 203//22
f 203//4 128//4 126//4
f 128//4 203//4 204//4
f 205//23 128//23 204//23
f 128//23 205//23 103//23
f 206//24 103//24 205//24
f 103//24 206//24 102//24
f 206//13 101//13 102//13
f 101//13 206//13 207//13
f 207//25 100//25 101//25
f 100//25 207//25 208//25
f 208//26 98//26 100//26
f 98//26 208//26 209//26
f 209//27 97//27 98//27
f 97//27 209//27 199//27
f 210//28 38//28 99//28
f 38//28 210//28 211//28
f 211//29 39//29 38//29
f 39//29 211//29 212//29
f 212//30 41//30 39//30
f 41//30 212//30 213//30
f 213//31 43//31 41//31
f 43//31 213//31 214//31
f 214//32 45//32 43//32
f 45//32 214//32 215//32
f 215//33 47//33 45//33
f 47//33 215//33 216//33
f 216//34 49//34 47//34
f 49//34 216//34 217//34
f 217//35 51//35 49//35
f 51//35 217//35 218//35
f 51//36 219//36 55//36
f 219//36 51//36 218//36
f 55//37 220//37 59//37
f 220//37 55//37 219//37
f 59//38 221//38 71//38
f 221//38 59//38 220//38
f 71//39 222//39 73//39
f 222//39 71//39 221//39
f 73//40 223//40 75//40
f 223//40 73//40 222//40
f 75//41 224//41 77//41
f 224//41 75//41 223//41
f 77//42 225//42 79//42
f 225//42 77//42 224//42
f 79//43 226//43 80//43
f 226//43 79//43 225//43
f 80//44 227//44 78//44
f 227//44 80//44 226//44
f 78//45 228//45 76//45
f 228//45 78//45 227//45
f 76//46 229//46 74//46
f 229//46 76//46 228//46
f 74//47 230//47 72//47
f 230//47 74//47 229//47
f 72//48 231//48 69//48
f 231//48 72//48 230//48
f 69//49 232//49 64//49
f 232//49 69//49 231//49
f 64//50 233//50 52//50
f 233//50 64//50 232//50
f 233//51 50//51 52//51
f 50//51 233//51 234//51
f 234//52 48//52 50//52
f 48//52 234//52 235//52
f 235//53 46//53 48//53
f 46//53 235//53 236//53
f 236//54 44//54 46//54
f 44//54 236//54 237//54
f 237//55 42//55 44//55
f 42//55 237//55 238//55
f 238//56 40//56 42//56
f 40//56 238//56 239//56
f 239//57 35//57 40//57
f 35//57 239//57 240//57
f 240//58 21//58 35//58
f 21//58 240//58 137//58
f 16//59 99//59 15//59
f 99//59 16//59 210//59
f 136//60 3//60 18//60
f 3//60 136//60 1//60
f 1//60 136//60 135//60
f 1//60 135//60 5//60
f 5//60 135//60 134//60
f 5//60 134//60 7//60
f 7//60 134//60 133//60
f 7//60 133//60 9//60
f 9//60 133//60 132//60
f 9//60 132//60 12//60
f 12//60 132//60 131//60
f 12//60 131//60 14//60
f 14//60 131//60 130//60
f 14//60 130//60 16//60
f 16//60 130//60 140//60
f 140//60 130//60 141//60
f 141//60 130//60 137//60
f 16//60 140//60 138//60
f 141//60 137//60 142//60
f 142//60 137//60 143//60
f 143//60 137//60 144//60
f 144//60 137//60 145//60
f 145//60 137//60 205//60
f 205//60 137//60 188//60
f 205//60 188//60 186//60
f 188//60 137//60 189//60
f 189//60 137//60 190//60
f 190//60 137//60 240//60
f 190//60 240//60 191//60
f 191//60 240//60 192//60
f 192//60 240//60 193//60
f 193//60 240//60 169//60
f 187//60 162//60 186//60
f 162//60 187//60 164//60
f 164//60 187//60 197//60
f 164//60 197//60 165//60
f 165//60 197//60 196//60
f 165//60 196//60 166//60
f 166//60 196//60 195//60
f 166//60 195//60 167//60
f 167//60 195//60 194//60
f 167//60 194//60 168//60
f 168//60 194//60 193//60
f 168//60 193//60 169//60
f 139//60 198//60 138//60
f 198//60 139//60 200//60
f 200//60 139//60 149//60
f 200//60 149//60 201//60
f 201//60 149//60 148//60
f 201//60 148//60 202//60
f 202//60 148//60 147//60
f 202//60 147//60 203//60
f 203//60 147//60 146//60
f 203//60 146//60 204//60
f 204//60 146//60 145//60
f 204//60 145//60 205//60
f 16//60 209//60 210//60
f 209//60 16//60 199//60
f 199//60 16//60 198//60
f 198//60 16//60 138//60
f 210//60 209//60 208//60
f 210//60 208//60 207//60
f 210//60 207//60 206//60
f 210//60 206//60 205//60
f 210//60 205//60 163//60
f 163//60 205//60 162//60
f 162//60 205//60 186//60
f 210//60 163//60 173//60
f 210//60 173//60 172//60
f 210//60 172//60 171//60
f 210//60 171//60 211//60
f 211//60 171//60 170//60
f 211//60 170//60 169//60
f 211//60 169//60 240//60
f 211//60 240//60 239//60
f 211//60 239//60 212//60
f 212//60 239//60 238//60
f 212//60 238//60 213//60
f 213//60 238//60 237//60
f 213//60 237//60 214//60
f 214//60 237//60 236//60
f 214//60 236//60 215//60
f 215//60 236//60 235//60
f 215//60 235//60 216//60
f 216//60 235//60 234//60
f 216//60 234//60 217//60
f 217//60 234//60 233//60
f 217//60 233//60 218//60
f 218//60 233//60 150//60
f 150//60 233//60 152//60
f 152//60 233//60 232//60
f 152//60 232//60 153//60
f 153//60 232//60 154//60
f 154//60 232//60 155//60
f 155//60 232//60 231//60
f 155//60 231//60 156//60
f 156//60 231//60 157//60
f 157//60 231//60 181//60
f 218//60 175//60 219//60
f 175//60 218//60 174//60
f 174//60 218//60 150//60
f 219//60 175//60 185//60
f 219//60 185//60 184//60
f 219//60 184//60 183//60
f 219//60 183//60 220//60
f 220//60 183//60 182//60
f 220//60 182//60 181//60
f 220//60 181//60 231//60
f 220//60 231//60 230//60
f 220//60 230//60 221//60
f 221//60 230//60 229//60
f 221//60 229//60 222//60
f 222//60 229//60 228//60
f 222//60 228//60 223//60
f 223//60 228//60 227//60
f 223//60 227//60 224//60
f 224//60 227//60 226//60
f 224//60 226//60 225//60
f 151//60 174//60 150//60
f 174//60 151//60 176//60
f 176//60 151//60 161//60
f 176//60 161//60 177//60
f 177//60 161//60 160//60
f 177//60 160//60 178//60
f 178//60 160//60 159//60
f 178//60 159//60 179//60
f 179//60 159//60 158//60
f 179//60 158//60 180//60
f 180//60 158//60 157//60
f 180//60 157//60 181//60
