####
#
# OBJ File Generated by Meshlab
#
####
# Object rotating_link_type_2_revolute_part.obj
#
# Vertices: 78
# Faces: 144
#
####
vn 1.252200 2.741937 2.570394
v 0.012379 0.027107 0.088856
vn 2.535821 1.629673 -2.570394
v 0.025069 0.016111 0.015000
vn 1.252200 2.741937 -2.570394
v 0.012379 0.027107 0.015000
vn 2.535821 1.629673 2.570394
v 0.025069 0.016111 0.088856
vn -1.973970 2.278083 2.570394
v -0.019515 0.022521 0.088856
vn -0.428985 2.983654 -2.570394
v -0.004241 0.029497 0.015000
vn -1.973970 2.278083 -2.570394
v -0.019515 0.022521 0.015000
vn -0.428985 2.983654 2.570394
v -0.004241 0.029497 0.088856
vn 1.252200 -2.741937 2.570394
v 0.012379 -0.027107 0.088856
vn -0.428985 -2.983654 -2.570394
v -0.004241 -0.029497 0.015000
vn 1.252200 -2.741937 -2.570394
v 0.012379 -0.027107 0.015000
vn -0.428985 -2.983654 2.570394
v -0.004241 -0.029497 0.088856
vn -2.892234 -0.849237 2.570394
v -0.028593 -0.008396 0.088856
vn -1.973970 -2.278083 -2.570394
v -0.019515 -0.022521 0.015000
vn -1.973970 -2.278083 2.570394
v -0.019515 -0.022521 0.088856
vn -2.892234 -0.849237 -2.570394
v -0.028593 -0.008396 0.015000
vn -2.892234 0.849237 2.570394
v -0.028593 0.008396 0.088856
vn -2.892234 0.849237 -2.570394
v -0.028593 0.008396 0.015000
vn 3.014336 0.000000 2.570394
v 0.029800 0.000000 0.088856
vn 3.014336 -0.000000 -2.570394
v 0.029800 0.000000 0.015000
vn 2.535821 -1.629673 2.570394
v 0.025069 -0.016111 0.088856
vn 2.535821 -1.629673 -2.570394
v 0.025069 -0.016111 0.015000
vn 2.841597 2.513274 0.923291
v 0.018070 0.034500 0.134871
vn 1.756203 -2.513274 2.417207
v 0.011168 0.018500 0.144371
vn 2.841597 -2.513274 0.923291
v 0.018070 0.018500 0.134871
vn 1.756203 2.513274 2.417207
v 0.011168 0.034500 0.144371
vn 3.141593 3.141593 0.000000
v 0.018070 0.034500 0.123129
vn 3.141593 -3.141593 0.000000
v 0.018070 0.018500 0.123129
vn 1.756204 -2.513274 -2.417207
v 0.011168 0.018500 0.053629
vn -1.756204 -2.513274 -2.417207
v -0.011168 0.018500 0.053629
vn -0.000000 -2.513274 -2.987832
v -0.000000 0.018500 0.050000
vn 2.841597 -2.513274 -0.923291
v 0.018070 0.018500 0.063129
vn -2.841597 -2.513274 -0.923291
v -0.018070 0.018500 0.063129
vn 3.141593 -3.141593 0.000000
v 0.018070 0.018500 0.074871
vn -3.141593 -3.141593 0.000000
v -0.018070 0.018500 0.074871
vn -3.141593 -3.141593 0.000000
v -0.018070 0.018500 0.123129
vn -2.841597 -2.513274 0.923291
v -0.018070 0.018500 0.134871
vn -1.756203 -2.513274 2.417207
v -0.011168 0.018500 0.144371
vn -0.000000 -2.513275 2.987833
v 0.000000 0.018500 0.148000
vn 3.141593 3.141593 0.000000
v 0.018070 0.034500 0.074871
vn -1.756203 2.513274 2.417207
v -0.011168 0.034500 0.144371
vn -2.841597 2.513274 0.923291
v -0.018070 0.034500 0.134871
vn 0.000000 2.513275 2.987833
v 0.000000 0.034500 0.148000
vn 2.841597 2.513274 -0.923291
v 0.018070 0.034500 0.063129
vn 1.756204 2.513274 -2.417207
v 0.011168 0.034500 0.053629
vn -0.000000 2.513274 -2.987832
v -0.000000 0.034500 0.050000
vn -1.756204 2.513274 -2.417207
v -0.011168 0.034500 0.053629
vn -2.841597 2.513274 -0.923291
v -0.018070 0.034500 0.063129
vn -3.141593 3.141593 0.000000
v -0.018070 0.034500 0.074871
vn -3.141593 3.141593 0.000000
v -0.018070 0.034500 0.123129
vn 2.841597 2.513274 0.923291
v 0.018070 -0.018500 0.134871
vn 1.756203 -2.513274 2.417207
v 0.011168 -0.034500 0.144371
vn 2.841597 -2.513274 0.923291
v 0.018070 -0.034500 0.134871
vn 1.756203 2.513274 2.417207
v 0.011168 -0.018500 0.144371
vn 3.141593 3.141593 0.000000
v 0.018070 -0.018500 0.123129
vn 3.141593 -3.141593 0.000000
v 0.018070 -0.034500 0.123129
vn 1.756204 -2.513274 -2.417207
v 0.011168 -0.034500 0.053629
vn -1.756204 -2.513274 -2.417207
v -0.011168 -0.034500 0.053629
vn -0.000000 -2.513274 -2.987832
v -0.000000 -0.034500 0.050000
vn 2.841597 -2.513274 -0.923291
v 0.018070 -0.034500 0.063129
vn -2.841597 -2.513274 -0.923291
v -0.018070 -0.034500 0.063129
vn 3.141593 -3.141593 0.000000
v 0.018070 -0.034500 0.074871
vn -3.141593 -3.141593 0.000000
v -0.018070 -0.034500 0.074871
vn -3.141593 -3.141593 0.000000
v -0.018070 -0.034500 0.123129
vn -2.841597 -2.513274 0.923291
v -0.018070 -0.034500 0.134871
vn -1.756203 -2.513274 2.417207
v -0.011168 -0.034500 0.144371
vn -0.000000 -2.513275 2.987833
v 0.000000 -0.034500 0.148000
vn 3.141593 3.141593 0.000000
v 0.018070 -0.018500 0.074871
vn -1.756203 2.513274 2.417207
v -0.011168 -0.018500 0.144371
vn -2.841597 2.513274 0.923291
v -0.018070 -0.018500 0.134871
vn 0.000000 2.513275 2.987833
v 0.000000 -0.018500 0.148000
vn 2.841597 2.513274 -0.923291
v 0.018070 -0.018500 0.063129
vn 1.756204 2.513274 -2.417207
v 0.011168 -0.018500 0.053629
vn -0.000000 2.513274 -2.987832
v -0.000000 -0.018500 0.050000
vn -1.756204 2.513274 -2.417207
v -0.011168 -0.018500 0.053629
vn -2.841597 2.513274 -0.923291
v -0.018070 -0.018500 0.063129
vn -3.141593 3.141593 0.000000
v -0.018070 -0.018500 0.074871
vn -3.141593 3.141593 0.000000
v -0.018070 -0.018500 0.123129
# 78 vertices, 0 vertices normals

f 1//1 2//2 3//3
f 2//2 1//1 4//4
f 5//5 6//6 7//7
f 6//6 5//5 8//8
f 9//9 10//10 11//11
f 10//10 9//9 12//12
f 8//8 3//3 6//6
f 3//3 8//8 1//1
f 13//13 14//14 15//15
f 14//14 13//13 16//16
f 12//12 14//14 10//10
f 14//14 12//12 15//15
f 17//17 16//16 13//13
f 16//16 17//17 18//18
f 2//2 19//19 20//20
f 19//19 2//2 4//4
f 5//5 18//18 17//17
f 18//18 5//5 7//7
f 20//20 21//21 22//22
f 21//21 20//20 19//19
f 15//15 17//17 13//13
f 17//17 15//15 5//5
f 5//5 15//15 12//12
f 5//5 12//12 8//8
f 8//8 12//12 9//9
f 8//8 9//9 1//1
f 1//1 9//9 21//21
f 1//1 21//21 4//4
f 4//4 21//21 19//19
f 18//18 14//14 16//16
f 14//14 18//18 7//7
f 14//14 7//7 10//10
f 10//10 7//7 6//6
f 10//10 6//6 11//11
f 11//11 6//6 3//3
f 11//11 3//3 22//22
f 22//22 3//3 2//2
f 22//22 2//2 20//20
f 21//21 11//11 22//22
f 11//11 21//21 9//9
f 23//23 24//24 25//25
f 24//24 23//23 26//26
f 27//27 25//25 28//28
f 25//25 27//27 23//23
f 29//29 30//30 31//31
f 30//30 29//29 32//32
f 30//30 32//32 33//33
f 33//33 32//32 34//34
f 33//33 34//34 35//35
f 35//35 34//34 28//28
f 35//35 28//28 36//36
f 36//36 28//28 25//25
f 36//36 25//25 37//37
f 37//37 25//25 24//24
f 37//37 24//24 38//38
f 38//38 24//24 39//39
f 40//40 28//28 34//34
f 28//28 40//40 27//27
f 41//41 37//37 38//38
f 37//37 41//41 42//42
f 39//39 41//41 38//38
f 41//41 39//39 43//43
f 24//24 43//43 39//39
f 43//43 24//24 26//26
f 44//44 34//34 32//32
f 34//34 44//44 40//40
f 45//45 32//32 29//29
f 32//32 45//45 44//44
f 45//45 31//31 46//46
f 31//31 45//45 29//29
f 46//46 30//30 47//47
f 30//30 46//46 31//31
f 48//48 30//30 33//33
f 30//30 48//48 47//47
f 49//49 33//33 35//35
f 33//33 49//49 48//48
f 50//50 35//35 36//36
f 35//35 50//50 49//49
f 42//42 36//36 37//37
f 36//36 42//42 50//50
f 47//47 45//45 46//46
f 45//45 47//47 48//48
f 45//45 48//48 44//44
f 44//44 48//48 49//49
f 44//44 49//49 40//40
f 40//40 49//49 50//50
f 40//40 50//50 27//27
f 27//27 50//50 42//42
f 27//27 42//42 23//23
f 23//23 42//42 41//41
f 23//23 41//41 26//26
f 26//26 41//41 43//43
f 51//51 52//52 53//53
f 52//52 51//51 54//54
f 55//55 53//53 56//56
f 53//53 55//55 51//51
f 57//57 58//58 59//59
f 58//58 57//57 60//60
f 58//58 60//60 61//61
f 61//61 60//60 62//62
f 61//61 62//62 63//63
f 63//63 62//62 56//56
f 63//63 56//56 64//64
f 64//64 56//56 53//53
f 64//64 53//53 65//65
f 65//65 53//53 52//52
f 65//65 52//52 66//66
f 66//66 52//52 67//67
f 68//68 56//56 62//62
f 56//56 68//68 55//55
f 69//69 65//65 66//66
f 65//65 69//69 70//70
f 67//67 69//69 66//66
f 69//69 67//67 71//71
f 52//52 71//71 67//67
f 71//71 52//52 54//54
f 72//72 62//62 60//60
f 62//62 72//72 68//68
f 73//73 60//60 57//57
f 60//60 73//73 72//72
f 73//73 59//59 74//74
f 59//59 73//73 57//57
f 74//74 58//58 75//75
f 58//58 74//74 59//59
f 76//76 58//58 61//61
f 58//58 76//76 75//75
f 77//77 61//61 63//63
f 61//61 77//77 76//76
f 78//78 63//63 64//64
f 63//63 78//78 77//77
f 70//70 64//64 65//65
f 64//64 70//70 78//78
f 75//75 73//73 74//74
f 73//73 75//75 76//76
f 73//73 76//76 72//72
f 72//72 76//76 77//77
f 72//72 77//77 68//68
f 68//68 77//77 78//78
f 68//68 78//78 55//55
f 55//55 78//78 70//70
f 55//55 70//70 51//51
f 51//51 70//70 69//69
f 51//51 69//69 54//54
f 54//54 69//69 71//71
# 144 faces, 0 coords texture

# End of File
