####
#
# OBJ File Generated by Meshlab
#
####
# Object wide_two_finger_gripper_finger_b.obj
#
# Vertices: 26
# Faces: 48
#
####
vn 1.110721 2.681517 -2.356195
v -0.007000 0.060000 -0.027000
vn -1.570796 -1.570796 -1.570796
v -0.012000 0.058000 -0.027000
vn -1.570796 1.570796 -1.570796
v -0.012000 0.060000 -0.027000
vn -1.570796 -1.570796 -4.712389
v -0.011000 0.058000 -0.027000
vn -2.681517 -1.110721 -2.356194
v -0.011000 0.055414 -0.027000
vn -2.681517 -1.110721 -3.926991
v -0.002000 0.046414 -0.027000
vn 2.681517 1.110721 -2.356194
v 0.012908 0.040092 -0.027000
vn -1.570796 -1.570796 -1.570796
v -0.002000 -0.009693 -0.027000
vn 1.570796 -1.570796 -1.570796
v 0.012908 -0.009693 -0.027000
vn 1.570796 -1.570796 1.570796
v 0.012908 -0.011900 0.027000
vn -2.681517 -1.110721 3.926991
v -0.002000 0.046414 0.027000
vn -1.570796 -1.570796 1.570796
v -0.002000 -0.011900 0.027000
vn -1.570796 -1.570796 4.712389
v -0.011000 0.058000 0.027000
vn -2.681517 -1.110721 2.356194
v -0.011000 0.055414 0.027000
vn 1.110721 2.681517 2.356195
v -0.007000 0.060000 0.027000
vn 2.681517 1.110721 2.356194
v 0.012908 0.040092 0.027000
vn -1.570796 1.570796 1.570796
v -0.012000 0.060000 0.027000
vn -1.570796 -1.570796 1.570796
v -0.012000 0.058000 0.027000
vn 1.570796 -1.570796 1.570796
v 0.012908 -0.009693 -0.022000
vn 4.247164 -1.500322 1.871478
v 0.012908 0.015277 -0.022000
vn 4.247164 -1.500322 -1.871478
v 0.012908 0.015277 0.022000
vn 1.570796 -1.570796 -1.570796
v 0.012908 -0.011900 0.022000
vn -1.570796 -1.570796 1.570796
v -0.002000 -0.009693 -0.022000
vn -1.570796 -1.570796 -1.570796
v -0.002000 -0.011900 0.022000
vn -5.177614 -1.500322 -1.270115
v -0.002000 0.019900 0.022000
vn -5.177614 -1.500322 1.270115
v -0.002000 0.019900 -0.022000
# 26 vertices, 0 vertices normals

f 1//1 2//2 3//3
f 2//2 1//1 4//4
f 4//4 1//1 5//5
f 5//5 1//1 6//6
f 6//6 1//1 7//7
f 6//6 7//7 8//8
f 8//8 7//7 9//9
f 10//10 11//11 12//12
f 11//11 13//13 14//14
f 13//13 11//11 15//15
f 15//15 11//11 16//16
f 16//16 11//11 10//10
f 13//13 17//17 18//18
f 17//17 13//13 15//15
f 7//7 19//19 9//9
f 19//19 7//7 20//20
f 20//20 7//7 21//21
f 21//21 10//10 22//22
f 10//10 21//21 16//16
f 16//16 21//21 7//7
f 19//19 8//8 9//9
f 8//8 19//19 23//23
f 11//11 5//5 6//6
f 5//5 11//11 14//14
f 13//13 5//5 14//14
f 5//5 13//13 4//4
f 13//13 2//2 4//4
f 2//2 13//13 18//18
f 17//17 2//2 18//18
f 2//2 17//17 3//3
f 17//17 1//1 3//3
f 1//1 17//17 15//15
f 15//15 7//7 1//1
f 7//7 15//15 16//16
f 11//11 24//24 12//12
f 24//24 11//11 25//25
f 25//25 11//11 26//26
f 26//26 8//8 23//23
f 8//8 26//26 6//6
f 6//6 26//26 11//11
f 21//21 24//24 25//25
f 24//24 21//21 22//22
f 21//21 26//26 20//20
f 26//26 21//21 25//25
f 19//19 26//26 23//23
f 26//26 19//19 20//20
f 10//10 24//24 22//22
f 24//24 10//10 12//12
# 48 faces, 0 coords texture

# End of File
