####
#
# OBJ File Generated by Meshlab
#
####
# Object wide_two_finger_gripper_finger_a.obj
#
# Vertices: 26
# Faces: 48
#
####
vn 1.570796 1.570796 -1.570796
v 0.012000 0.060000 -0.027000
vn 1.570796 -1.570796 -4.712389
v 0.011000 0.058000 -0.027000
vn -1.110721 2.681517 -2.356195
v 0.007000 0.060000 -0.027000
vn 1.570796 -1.570796 -1.570796
v 0.012000 0.058000 -0.027000
vn -2.681517 1.110721 -2.356194
v -0.013000 0.040000 -0.027000
vn 2.681517 -1.110721 -3.926991
v 0.002000 0.046414 -0.027000
vn -1.570796 -1.570796 -1.570796
v -0.013000 -0.009710 -0.027000
vn 2.681517 -1.110721 -2.356194
v 0.011000 0.055414 -0.027000
vn 1.570796 -1.570796 -1.570796
v 0.002000 -0.009710 -0.027000
vn 1.570796 -1.570796 1.570796
v 0.002000 -0.011900 0.027000
vn -2.681517 1.110721 2.356194
v -0.013000 0.040000 0.027000
vn -1.570796 -1.570796 1.570796
v -0.013000 -0.011900 0.027000
vn 2.681517 -1.110721 3.926991
v 0.002000 0.046414 0.027000
vn -1.110721 2.681517 2.356195
v 0.007000 0.060000 0.027000
vn 2.681517 -1.110721 2.356194
v 0.011000 0.055414 0.027000
vn 1.570796 -1.570796 4.712389
v 0.011000 0.058000 0.027000
vn 1.570796 1.570796 1.570796
v 0.012000 0.060000 0.027000
vn 1.570796 -1.570796 1.570796
v 0.012000 0.058000 0.027000
vn -1.570796 -1.570796 -1.570796
v -0.013000 -0.011900 0.022000
vn 1.570796 -1.570796 -1.570796
v 0.002000 -0.011900 0.022000
vn -4.242625 -1.498907 -1.874505
v -0.013000 0.015199 0.022000
vn -4.242625 -1.498907 1.874505
v -0.013000 0.015199 -0.022000
vn -1.570796 -1.570796 1.570796
v -0.013000 -0.009710 -0.022000
vn 1.570796 -1.570796 1.570796
v 0.002000 -0.009710 -0.022000
vn 5.182153 -1.498907 1.267088
v 0.002000 0.019900 -0.022000
vn 5.182153 -1.498907 -1.267088
v 0.002000 0.019900 0.022000
# 26 vertices, 0 vertices normals

f 1//1 2//2 3//3
f 2//2 1//1 4//4
f 5//5 6//6 7//7
f 6//6 5//5 3//3
f 6//6 3//3 8//8
f 8//8 3//3 2//2
f 9//9 7//7 6//6
f 10//10 11//11 12//12
f 11//11 10//10 13//13
f 11//11 13//13 14//14
f 14//14 13//13 15//15
f 14//14 15//15 16//16
f 14//14 16//16 17//17
f 17//17 16//16 18//18
f 15//15 6//6 8//8
f 6//6 15//15 13//13
f 10//10 19//19 20//20
f 19//19 10//10 12//12
f 11//11 19//19 12//12
f 19//19 11//11 21//21
f 21//21 11//11 22//22
f 23//23 5//5 7//7
f 5//5 23//23 22//22
f 5//5 22//22 11//11
f 11//11 3//3 5//5
f 3//3 11//11 14//14
f 14//14 1//1 3//3
f 1//1 14//14 17//17
f 1//1 18//18 4//4
f 18//18 1//1 17//17
f 18//18 2//2 4//4
f 2//2 18//18 16//16
f 2//2 15//15 8//8
f 15//15 2//2 16//16
f 6//6 24//24 9//9
f 24//24 6//6 25//25
f 25//25 6//6 26//26
f 20//20 13//13 10//10
f 13//13 20//20 26//26
f 13//13 26//26 6//6
f 24//24 22//22 23//23
f 22//22 24//24 25//25
f 26//26 22//22 25//25
f 22//22 26//26 21//21
f 26//26 19//19 21//21
f 19//19 26//26 20//20
f 24//24 7//7 9//9
f 7//7 24//24 23//23
# 48 faces, 0 coords texture

# End of File
